<svg width="85" height="28" viewBox="0 0 85 28" fill="none" xmlns="http://www.w3.org/2000/svg">
<rect width="27.9991" height="27.9991" rx="4.1404" fill="#FFDB1C"/>
<rect x="0.322016" y="0.321039" width="27.357" height="27.357" rx="3.81936" fill="#FFDB1C" stroke="#FFDB1C" stroke-width="0.642079"/>
<path d="M12.0846 3.47622H16.3794L12.647 12.5363L12.4644 12.9796H12.9439H15.6787L14.6013 16.7014H11.266H9.23985L12.0846 3.47622Z" stroke="black" stroke-width="0.642079"/>
<path d="M11.3676 15.1551L14.0153 4.41783H18.9468L15.1112 12.4045H18.9468L11.9992 24.9449L13.894 15.1551H11.3676Z" fill="black"/>
<path d="M46.426 23.2275C45.418 23.2275 44.498 23.0195 43.666 22.6035C42.85 22.1875 42.218 21.5875 41.77 20.8035L42.082 20.2995V22.9395H39.49V4.77155H42.202V12.6435L41.77 12.0195C42.25 11.2835 42.89 10.7075 43.69 10.2915C44.49 9.87555 45.402 9.66755 46.426 9.66755C47.658 9.66755 48.762 9.96355 49.738 10.5555C50.73 11.1475 51.506 11.9555 52.066 12.9795C52.642 14.0035 52.93 15.1555 52.93 16.4355C52.93 17.7155 52.642 18.8675 52.066 19.8915C51.506 20.9155 50.738 21.7315 49.762 22.3395C48.786 22.9315 47.674 23.2275 46.426 23.2275ZM46.162 20.7075C46.93 20.7075 47.61 20.5235 48.202 20.1555C48.794 19.7875 49.258 19.2835 49.594 18.6435C49.946 17.9875 50.122 17.2515 50.122 16.4355C50.122 15.6195 49.946 14.8915 49.594 14.2515C49.258 13.6115 48.794 13.1075 48.202 12.7395C47.61 12.3715 46.93 12.1875 46.162 12.1875C45.41 12.1875 44.73 12.3715 44.122 12.7395C43.53 13.1075 43.058 13.6115 42.706 14.2515C42.37 14.8915 42.202 15.6195 42.202 16.4355C42.202 17.2515 42.37 17.9875 42.706 18.6435C43.058 19.2835 43.53 19.7875 44.122 20.1555C44.73 20.5235 45.41 20.7075 46.162 20.7075Z" fill="black"/>
<path d="M61.8321 23.2275C60.5841 23.2275 59.4401 22.9315 58.4001 22.3395C57.3761 21.7475 56.5601 20.9395 55.9521 19.9155C55.3441 18.8915 55.0401 17.7315 55.0401 16.4355C55.0401 15.1235 55.3441 13.9635 55.9521 12.9555C56.5601 11.9315 57.3761 11.1315 58.4001 10.5555C59.4241 9.96355 60.5681 9.66755 61.8321 9.66755C63.1121 9.66755 64.2561 9.96355 65.2641 10.5555C66.2881 11.1315 67.0961 11.9315 67.6881 12.9555C68.2961 13.9635 68.6001 15.1235 68.6001 16.4355C68.6001 17.7475 68.2961 18.9155 67.6881 19.9395C67.0801 20.9635 66.2641 21.7715 65.2401 22.3635C64.2161 22.9395 63.0801 23.2275 61.8321 23.2275ZM61.8321 20.7075C62.6001 20.7075 63.2801 20.5235 63.8721 20.1555C64.4641 19.7875 64.9281 19.2835 65.2641 18.6435C65.6161 17.9875 65.7921 17.2515 65.7921 16.4355C65.7921 15.6195 65.6161 14.8915 65.2641 14.2515C64.9281 13.6115 64.4641 13.1075 63.8721 12.7395C63.2801 12.3715 62.6001 12.1875 61.8321 12.1875C61.0801 12.1875 60.4001 12.3715 59.7921 12.7395C59.2001 13.1075 58.7281 13.6115 58.3761 14.2515C58.0401 14.8915 57.8721 15.6195 57.8721 16.4355C57.8721 17.2515 58.0401 17.9875 58.3761 18.6435C58.7281 19.2835 59.2001 19.7875 59.7921 20.1555C60.4001 20.5235 61.0801 20.7075 61.8321 20.7075Z" fill="black"/>
<path d="M71.2478 22.9395V4.77155H73.9598V22.9395H71.2478Z" fill="black"/>
<path d="M82.7466 23.0835C81.3866 23.0835 80.3306 22.6995 79.5786 21.9315C78.8266 21.1635 78.4506 20.0835 78.4506 18.6915V12.4035H76.1706V9.95555H76.5306C77.1386 9.95555 77.6106 9.77955 77.9466 9.42755C78.2826 9.07555 78.4506 8.59555 78.4506 7.98755V6.97955H81.1626V9.95555H84.1146V12.4035H81.1626V18.5715C81.1626 19.0195 81.2346 19.4035 81.3786 19.7235C81.5226 20.0275 81.7546 20.2675 82.0746 20.4435C82.3946 20.6035 82.8106 20.6835 83.3226 20.6835C83.4506 20.6835 83.5946 20.6755 83.7546 20.6595C83.9146 20.6435 84.0666 20.6275 84.2106 20.6115V22.9395C83.9866 22.9715 83.7386 23.0035 83.4666 23.0355C83.1946 23.0675 82.9546 23.0835 82.7466 23.0835Z" fill="black"/>
</svg>
