<svg width="158" height="30" viewBox="0 0 158 30" fill="none" xmlns="http://www.w3.org/2000/svg">
<rect y="3" width="7.2" height="7.2" rx="2" fill="#262626"/>
<rect y="11.4004" width="7.2" height="7.2" rx="2" fill="#262626"/>
<rect y="19.8008" width="7.2" height="7.2" rx="2" fill="#262626"/>
<rect x="8.40039" y="3" width="7.2" height="7.2" rx="2" fill="#262626"/>
<rect x="8.40039" y="11.4004" width="7.2" height="7.2" rx="2" fill="#262626"/>
<rect x="8.40039" y="19.8008" width="7.2" height="7.2" rx="2" fill="#262626"/>
<rect x="16.8008" y="3" width="7.2" height="7.2" rx="2" fill="#262626"/>
<rect x="16.8008" y="11.4004" width="7.2" height="7.2" rx="2" fill="#262626"/>
<rect x="16.8008" y="19.8008" width="7.2" height="7.2" rx="2" fill="#262626"/>
<path d="M11.3633 13.8849L12.8205 7.19922L6.59961 16.1135H12.0358L10.5787 22.7992L16.7996 13.8849H11.3633Z" fill="#262626" stroke="#1A91FF" stroke-width="1.25" stroke-linecap="round" stroke-linejoin="round"/>
<path d="M39.585 25.288C38.337 25.288 37.217 24.992 36.225 24.4C35.249 23.792 34.473 22.976 33.897 21.952C33.337 20.928 33.057 19.776 33.057 18.496C33.057 17.216 33.345 16.064 33.921 15.04C34.497 14.016 35.273 13.208 36.249 12.616C37.225 12.024 38.329 11.728 39.561 11.728C40.601 11.728 41.521 11.936 42.321 12.352C43.121 12.768 43.753 13.344 44.217 14.08L43.809 14.704V6.832H46.497V25H43.929V22.36L44.241 22.864C43.793 23.648 43.153 24.248 42.321 24.664C41.489 25.08 40.577 25.288 39.585 25.288ZM39.849 22.768C40.601 22.768 41.273 22.584 41.865 22.216C42.473 21.848 42.945 21.344 43.281 20.704C43.633 20.048 43.809 19.312 43.809 18.496C43.809 17.68 43.633 16.952 43.281 16.312C42.945 15.672 42.473 15.168 41.865 14.8C41.273 14.432 40.601 14.248 39.849 14.248C39.097 14.248 38.417 14.432 37.809 14.8C37.201 15.168 36.729 15.672 36.393 16.312C36.057 16.952 35.889 17.68 35.889 18.496C35.889 19.312 36.057 20.048 36.393 20.704C36.729 21.344 37.193 21.848 37.785 22.216C38.393 22.584 39.081 22.768 39.849 22.768ZM53.5511 25.288C52.6711 25.288 51.8951 25.136 51.2231 24.832C50.5671 24.512 50.0551 24.08 49.6871 23.536C49.3191 22.976 49.1351 22.32 49.1351 21.568C49.1351 20.864 49.2871 20.232 49.5911 19.672C49.9111 19.112 50.3991 18.64 51.0551 18.256C51.7111 17.872 52.5351 17.6 53.5271 17.44L58.0391 16.696V18.832L54.0551 19.528C53.3351 19.656 52.8071 19.888 52.4711 20.224C52.1351 20.544 51.9671 20.96 51.9671 21.472C51.9671 21.968 52.1511 22.376 52.5191 22.696C52.9031 23 53.3911 23.152 53.9831 23.152C54.7191 23.152 55.3591 22.992 55.9031 22.672C56.4631 22.352 56.8951 21.928 57.1991 21.4C57.5031 20.856 57.6551 20.256 57.6551 19.6V16.264C57.6551 15.624 57.4151 15.104 56.9351 14.704C56.4711 14.288 55.8471 14.08 55.0631 14.08C54.3431 14.08 53.7111 14.272 53.1671 14.656C52.6391 15.024 52.2471 15.504 51.9911 16.096L49.7351 14.968C49.9751 14.328 50.3671 13.768 50.9111 13.288C51.4551 12.792 52.0871 12.408 52.8071 12.136C53.5431 11.864 54.3191 11.728 55.1351 11.728C56.1591 11.728 57.0631 11.92 57.8471 12.304C58.6471 12.688 59.2631 13.224 59.6951 13.912C60.1431 14.584 60.3671 15.368 60.3671 16.264V25H57.7751V22.648L58.3271 22.72C58.0231 23.248 57.6311 23.704 57.1511 24.088C56.6871 24.472 56.1511 24.768 55.5431 24.976C54.9511 25.184 54.2871 25.288 53.5511 25.288ZM63.5381 25V12.016H66.1301V14.56L65.8181 14.224C66.1381 13.408 66.6501 12.792 67.3541 12.376C68.0581 11.944 68.8741 11.728 69.8021 11.728C70.7621 11.728 71.6101 11.936 72.3461 12.352C73.0821 12.768 73.6581 13.344 74.0741 14.08C74.4901 14.816 74.6981 15.664 74.6981 16.624V25H72.0101V17.344C72.0101 16.688 71.8901 16.136 71.6501 15.688C71.4101 15.224 71.0661 14.872 70.6181 14.632C70.1861 14.376 69.6901 14.248 69.1301 14.248C68.5701 14.248 68.0661 14.376 67.6181 14.632C67.1861 14.872 66.8501 15.224 66.6101 15.688C66.3701 16.152 66.2501 16.704 66.2501 17.344V25H63.5381ZM77.6006 25V6.832H80.3126V19L79.2566 18.736L85.7606 12.016H89.1446L84.2486 17.224L89.3606 25H86.2406L81.6806 18.112L83.2886 17.896L79.4486 21.976L80.3126 20.176V25H77.6006Z" fill="white"/>
<rect x="99.501" y="1.5" width="58" height="27" rx="13.5" fill="url(#paint0_linear_5197_3340)" fill-opacity="0.3"/>
<path d="M113.223 20.169C112.739 20.169 112.301 20.0795 111.91 19.9006C111.519 19.7183 111.209 19.4548 110.98 19.1101C110.755 18.7654 110.642 18.3428 110.642 17.8423C110.642 17.4115 110.725 17.0568 110.891 16.7784C111.057 16.5 111.28 16.2796 111.562 16.1172C111.844 15.9548 112.159 15.8321 112.507 15.7493C112.855 15.6664 113.209 15.6035 113.571 15.5604C114.028 15.5073 114.399 15.4643 114.684 15.4311C114.969 15.3946 115.176 15.3366 115.306 15.2571C115.435 15.1776 115.5 15.0483 115.5 14.8693V14.8345C115.5 14.4003 115.377 14.0639 115.132 13.8253C114.89 13.5866 114.528 13.4673 114.048 13.4673C113.547 13.4673 113.153 13.5784 112.865 13.8004C112.58 14.0192 112.382 14.2628 112.273 14.5312L110.876 14.2131C111.042 13.7491 111.284 13.3745 111.602 13.0895C111.923 12.8011 112.293 12.5923 112.71 12.4631C113.128 12.3305 113.567 12.2642 114.028 12.2642C114.333 12.2642 114.656 12.3007 114.997 12.3736C115.342 12.4432 115.664 12.5724 115.962 12.7614C116.264 12.9503 116.51 13.2204 116.703 13.5717C116.895 13.9197 116.991 14.3722 116.991 14.929V20H115.539V18.956H115.48C115.384 19.1482 115.239 19.3371 115.047 19.5227C114.855 19.7083 114.608 19.8625 114.306 19.9851C114.005 20.1077 113.643 20.169 113.223 20.169ZM113.546 18.9759C113.957 18.9759 114.308 18.8946 114.6 18.7322C114.895 18.5698 115.118 18.3577 115.271 18.0959C115.427 17.8307 115.505 17.5473 115.505 17.2457V16.2614C115.451 16.3144 115.349 16.3641 115.196 16.4105C115.047 16.4536 114.876 16.4917 114.684 16.5249C114.492 16.5547 114.305 16.5829 114.122 16.6094C113.94 16.6326 113.788 16.6525 113.665 16.669C113.377 16.7055 113.113 16.7668 112.875 16.853C112.639 16.9392 112.45 17.0634 112.308 17.2259C112.169 17.3849 112.099 17.5971 112.099 17.8622C112.099 18.2301 112.235 18.5085 112.507 18.6974C112.778 18.883 113.125 18.9759 113.546 18.9759ZM120.457 9.81818V20H118.971V9.81818H120.457ZM122.457 22.8636V12.3636H123.909V13.6016H124.033C124.119 13.4425 124.244 13.2585 124.406 13.0497C124.569 12.8409 124.794 12.6586 125.082 12.5028C125.371 12.3438 125.752 12.2642 126.226 12.2642C126.842 12.2642 127.392 12.42 127.876 12.7315C128.36 13.0431 128.74 13.4922 129.015 14.0788C129.293 14.6655 129.432 15.3714 129.432 16.1967C129.432 17.022 129.295 17.7296 129.02 18.3196C128.745 18.9062 128.367 19.3587 127.886 19.6768C127.406 19.9917 126.857 20.1491 126.241 20.1491C125.777 20.1491 125.397 20.0713 125.102 19.9155C124.811 19.7597 124.582 19.5774 124.416 19.3686C124.25 19.1598 124.123 18.9742 124.033 18.8118H123.944V22.8636H122.457ZM123.914 16.1818C123.914 16.7187 123.992 17.1894 124.148 17.5938C124.303 17.9981 124.529 18.3146 124.824 18.5433C125.119 18.7687 125.48 18.8814 125.908 18.8814C126.352 18.8814 126.723 18.7637 127.021 18.5284C127.32 18.2898 127.545 17.9666 127.697 17.5589C127.853 17.1513 127.931 16.6922 127.931 16.1818C127.931 15.678 127.855 15.2256 127.702 14.8246C127.553 14.4235 127.328 14.107 127.026 13.875C126.728 13.643 126.355 13.527 125.908 13.527C125.477 13.527 125.112 13.638 124.814 13.8601C124.519 14.0821 124.295 14.392 124.143 14.7898C123.99 15.1875 123.914 15.6515 123.914 16.1818ZM132.584 15.4659V20H131.098V9.81818H132.565V13.6065H132.659C132.838 13.1955 133.111 12.8691 133.479 12.6271C133.847 12.3852 134.328 12.2642 134.921 12.2642C135.445 12.2642 135.902 12.3719 136.293 12.5874C136.688 12.8028 136.993 13.1243 137.208 13.5518C137.427 13.9761 137.536 14.5064 137.536 15.1428V20H136.05V15.3217C136.05 14.7616 135.905 14.3274 135.617 14.0192C135.329 13.7076 134.928 13.5518 134.414 13.5518C134.063 13.5518 133.748 13.6264 133.469 13.7756C133.194 13.9247 132.977 14.1435 132.818 14.4318C132.662 14.7169 132.584 15.0616 132.584 15.4659ZM141.742 20.169C141.258 20.169 140.821 20.0795 140.43 19.9006C140.039 19.7183 139.729 19.4548 139.5 19.1101C139.275 18.7654 139.162 18.3428 139.162 17.8423C139.162 17.4115 139.245 17.0568 139.41 16.7784C139.576 16.5 139.8 16.2796 140.082 16.1172C140.363 15.9548 140.678 15.8321 141.026 15.7493C141.374 15.6664 141.729 15.6035 142.09 15.5604C142.547 15.5073 142.919 15.4643 143.204 15.4311C143.489 15.3946 143.696 15.3366 143.825 15.2571C143.954 15.1776 144.019 15.0483 144.019 14.8693V14.8345C144.019 14.4003 143.896 14.0639 143.651 13.8253C143.409 13.5866 143.048 13.4673 142.567 13.4673C142.067 13.4673 141.672 13.5784 141.384 13.8004C141.099 14.0192 140.902 14.2628 140.793 14.5312L139.396 14.2131C139.561 13.7491 139.803 13.3745 140.121 13.0895C140.443 12.8011 140.812 12.5923 141.23 12.4631C141.648 12.3305 142.087 12.2642 142.547 12.2642C142.852 12.2642 143.176 12.3007 143.517 12.3736C143.862 12.4432 144.183 12.5724 144.481 12.7614C144.783 12.9503 145.03 13.2204 145.222 13.5717C145.414 13.9197 145.511 14.3722 145.511 14.929V20H144.059V18.956H143.999C143.903 19.1482 143.759 19.3371 143.567 19.5227C143.374 19.7083 143.128 19.8625 142.826 19.9851C142.524 20.1077 142.163 20.169 141.742 20.169ZM142.065 18.9759C142.476 18.9759 142.828 18.8946 143.119 18.7322C143.414 18.5698 143.638 18.3577 143.79 18.0959C143.946 17.8307 144.024 17.5473 144.024 17.2457V16.2614C143.971 16.3144 143.868 16.3641 143.716 16.4105C143.567 16.4536 143.396 16.4917 143.204 16.5249C143.012 16.5547 142.824 16.5829 142.642 16.6094C142.46 16.6326 142.307 16.6525 142.185 16.669C141.896 16.7055 141.633 16.7668 141.394 16.853C141.159 16.9392 140.97 17.0634 140.827 17.2259C140.688 17.3849 140.619 17.5971 140.619 17.8622C140.619 18.2301 140.754 18.5085 141.026 18.6974C141.298 18.883 141.644 18.9759 142.065 18.9759Z" fill="#FAFAFA"/>
<rect x="99.501" y="1.5" width="58" height="27" rx="13.5" stroke="#404040"/>
<defs>
<linearGradient id="paint0_linear_5197_3340" x1="126.5" y1="28" x2="175.039" y2="10.2912" gradientUnits="userSpaceOnUse">
<stop offset="0.106494" stop-color="#1581E4" stop-opacity="0.37"/>
<stop offset="0.48411" stop-color="#6F26CE" stop-opacity="0.72"/>
<stop offset="0.830257" stop-color="#2AB4D9" stop-opacity="0.52"/>
</linearGradient>
</defs>
</svg>
