<svg width="279" height="31" viewBox="0 0 279 31" fill="none" xmlns="http://www.w3.org/2000/svg">
<rect y="3.00049" width="7.19976" height="7.19976" rx="1.59995" fill="#E5E5E5"/>
<rect y="11.4001" width="7.19976" height="7.19976" rx="1.59995" fill="#E5E5E5"/>
<rect y="19.7997" width="7.19976" height="7.19976" rx="1.59995" fill="#E5E5E5"/>
<rect x="8.3999" y="3.00049" width="7.19976" height="7.19976" rx="1.59995" fill="#E5E5E5"/>
<rect x="8.3999" y="11.4001" width="7.19976" height="7.19976" rx="1.59995" fill="#E5E5E5"/>
<rect x="8.3999" y="19.7997" width="7.19976" height="7.19976" rx="1.59995" fill="#E5E5E5"/>
<rect x="16.8003" y="3.00049" width="7.19976" height="7.19976" rx="1.59995" fill="#E5E5E5"/>
<rect x="16.8003" y="11.4001" width="7.19976" height="7.19976" rx="1.59995" fill="#E5E5E5"/>
<rect x="16.8003" y="19.7997" width="7.19976" height="7.19976" rx="1.59995" fill="#E5E5E5"/>
<path d="M11.3632 13.886L12.8203 7.20056L6.59961 16.1146H12.0357L10.5786 22.8001L16.7993 13.886H11.3632Z" fill="#E5E5E5" stroke="#005DB4" stroke-width="0.999967" stroke-linecap="round" stroke-linejoin="round"/>
<path d="M39.848 30.28C38.904 30.28 38.032 30.128 37.232 29.824C36.432 29.52 35.744 29.096 35.168 28.552C34.592 28.024 34.16 27.4 33.872 26.68L36.368 25.648C36.592 26.256 37 26.76 37.592 27.16C38.2 27.56 38.944 27.76 39.824 27.76C40.512 27.76 41.128 27.624 41.672 27.352C42.216 27.096 42.648 26.712 42.968 26.2C43.288 25.704 43.448 25.104 43.448 24.4V21.472L43.928 22.024C43.48 22.856 42.856 23.488 42.056 23.92C41.272 24.352 40.384 24.568 39.392 24.568C38.192 24.568 37.112 24.288 36.152 23.728C35.192 23.168 34.432 22.4 33.872 21.424C33.328 20.448 33.056 19.352 33.056 18.136C33.056 16.904 33.328 15.808 33.872 14.848C34.432 13.888 35.184 13.128 36.128 12.568C37.072 12.008 38.152 11.728 39.368 11.728C40.36 11.728 41.24 11.944 42.008 12.376C42.792 12.792 43.432 13.4 43.928 14.2L43.568 14.872V12.016H46.136V24.4C46.136 25.52 45.864 26.52 45.32 27.4C44.792 28.296 44.056 29 43.112 29.512C42.168 30.024 41.08 30.28 39.848 30.28ZM39.704 22.048C40.424 22.048 41.064 21.88 41.624 21.544C42.184 21.192 42.624 20.728 42.944 20.152C43.28 19.56 43.448 18.896 43.448 18.16C43.448 17.424 43.28 16.76 42.944 16.168C42.608 15.576 42.16 15.112 41.6 14.776C41.04 14.424 40.408 14.248 39.704 14.248C38.968 14.248 38.312 14.424 37.736 14.776C37.16 15.112 36.704 15.576 36.368 16.168C36.048 16.744 35.888 17.408 35.888 18.16C35.888 18.88 36.048 19.536 36.368 20.128C36.704 20.72 37.16 21.192 37.736 21.544C38.312 21.88 38.968 22.048 39.704 22.048ZM49.3106 25V6.832H52.0226V25H49.3106ZM59.8254 25.288C58.8494 25.288 57.9934 25.072 57.2574 24.64C56.5214 24.192 55.9454 23.576 55.5294 22.792C55.1294 21.992 54.9294 21.072 54.9294 20.032V12.016H57.6414V19.792C57.6414 20.384 57.7614 20.904 58.0014 21.352C58.2414 21.8 58.5774 22.152 59.0094 22.408C59.4414 22.648 59.9374 22.768 60.4974 22.768C61.0734 22.768 61.5774 22.64 62.0094 22.384C62.4414 22.128 62.7774 21.768 63.0174 21.304C63.2734 20.84 63.4014 20.296 63.4014 19.672V12.016H66.0894V25H63.5214V22.456L63.8094 22.792C63.5054 23.592 63.0014 24.208 62.2974 24.64C61.5934 25.072 60.7694 25.288 59.8254 25.288ZM75.3519 25.288C74.0559 25.288 72.9039 24.992 71.8959 24.4C70.9039 23.792 70.1279 22.976 69.5679 21.952C69.0079 20.912 68.7279 19.752 68.7279 18.472C68.7279 17.16 69.0079 16 69.5679 14.992C70.1439 13.984 70.9119 13.192 71.8719 12.616C72.8319 12.024 73.9199 11.728 75.1359 11.728C76.1119 11.728 76.9839 11.896 77.7519 12.232C78.5199 12.568 79.1679 13.032 79.6959 13.624C80.2239 14.2 80.6239 14.864 80.8959 15.616C81.1839 16.368 81.3279 17.168 81.3279 18.016C81.3279 18.224 81.3199 18.44 81.3039 18.664C81.2879 18.888 81.2559 19.096 81.2079 19.288H70.8639V17.128H79.6719L78.3759 18.112C78.5359 17.328 78.4799 16.632 78.2079 16.024C77.9519 15.4 77.5519 14.912 77.0079 14.56C76.4799 14.192 75.8559 14.008 75.1359 14.008C74.4159 14.008 73.7759 14.192 73.2159 14.56C72.6559 14.912 72.2239 15.424 71.9199 16.096C71.6159 16.752 71.4959 17.552 71.5599 18.496C71.4799 19.376 71.5999 20.144 71.9199 20.8C72.2559 21.456 72.7199 21.968 73.3119 22.336C73.9199 22.704 74.6079 22.888 75.3759 22.888C76.1599 22.888 76.8239 22.712 77.3679 22.36C77.9279 22.008 78.3679 21.552 78.6879 20.992L80.8959 22.072C80.6399 22.68 80.2399 23.232 79.6959 23.728C79.1679 24.208 78.5279 24.592 77.7759 24.88C77.0399 25.152 76.2319 25.288 75.3519 25.288ZM88.7746 25.288C87.4466 25.288 86.2786 24.96 85.2706 24.304C84.2786 23.648 83.5826 22.768 83.1826 21.664L85.2706 20.68C85.6226 21.416 86.1026 22 86.7106 22.432C87.3346 22.864 88.0226 23.08 88.7746 23.08C89.4146 23.08 89.9346 22.936 90.3346 22.648C90.7346 22.36 90.9346 21.968 90.9346 21.472C90.9346 21.152 90.8466 20.896 90.6706 20.704C90.4946 20.496 90.2706 20.328 89.9986 20.2C89.7426 20.072 89.4786 19.976 89.2066 19.912L87.1666 19.336C86.0466 19.016 85.2066 18.536 84.6466 17.896C84.1026 17.24 83.8306 16.48 83.8306 15.616C83.8306 14.832 84.0306 14.152 84.4306 13.576C84.8306 12.984 85.3826 12.528 86.0866 12.208C86.7906 11.888 87.5826 11.728 88.4626 11.728C89.6466 11.728 90.7026 12.024 91.6306 12.616C92.5586 13.192 93.2146 14 93.5986 15.04L91.5106 16.024C91.2546 15.4 90.8466 14.904 90.2866 14.536C89.7426 14.168 89.1266 13.984 88.4386 13.984C87.8466 13.984 87.3746 14.128 87.0226 14.416C86.6706 14.688 86.4946 15.048 86.4946 15.496C86.4946 15.8 86.5746 16.056 86.7346 16.264C86.8946 16.456 87.1026 16.616 87.3586 16.744C87.6146 16.856 87.8786 16.952 88.1506 17.032L90.2626 17.656C91.3346 17.96 92.1586 18.44 92.7346 19.096C93.3106 19.736 93.5986 20.504 93.5986 21.4C93.5986 22.168 93.3906 22.848 92.9746 23.44C92.5746 24.016 92.0146 24.472 91.2946 24.808C90.5746 25.128 89.7346 25.288 88.7746 25.288ZM101.872 25.144C100.512 25.144 99.4559 24.76 98.7039 23.992C97.9519 23.224 97.5759 22.144 97.5759 20.752V14.464H95.2959V12.016H95.6559C96.2639 12.016 96.7359 11.84 97.0719 11.488C97.4079 11.136 97.5759 10.656 97.5759 10.048V9.04H100.288V12.016H103.24V14.464H100.288V20.632C100.288 21.08 100.36 21.464 100.504 21.784C100.648 22.088 100.88 22.328 101.2 22.504C101.52 22.664 101.936 22.744 102.448 22.744C102.576 22.744 102.72 22.736 102.88 22.72C103.04 22.704 103.192 22.688 103.336 22.672V25C103.112 25.032 102.864 25.064 102.592 25.096C102.32 25.128 102.08 25.144 101.872 25.144ZM109.753 25.288C108.873 25.288 108.097 25.136 107.425 24.832C106.769 24.512 106.257 24.08 105.889 23.536C105.521 22.976 105.337 22.32 105.337 21.568C105.337 20.864 105.489 20.232 105.793 19.672C106.113 19.112 106.601 18.64 107.257 18.256C107.913 17.872 108.737 17.6 109.729 17.44L114.241 16.696V18.832L110.257 19.528C109.537 19.656 109.009 19.888 108.673 20.224C108.337 20.544 108.169 20.96 108.169 21.472C108.169 21.968 108.353 22.376 108.721 22.696C109.105 23 109.593 23.152 110.185 23.152C110.921 23.152 111.561 22.992 112.105 22.672C112.665 22.352 113.097 21.928 113.401 21.4C113.705 20.856 113.857 20.256 113.857 19.6V16.264C113.857 15.624 113.617 15.104 113.137 14.704C112.673 14.288 112.049 14.08 111.265 14.08C110.545 14.08 109.913 14.272 109.369 14.656C108.841 15.024 108.449 15.504 108.193 16.096L105.937 14.968C106.177 14.328 106.569 13.768 107.113 13.288C107.657 12.792 108.289 12.408 109.009 12.136C109.745 11.864 110.521 11.728 111.337 11.728C112.361 11.728 113.265 11.92 114.049 12.304C114.849 12.688 115.465 13.224 115.897 13.912C116.345 14.584 116.569 15.368 116.569 16.264V25H113.977V22.648L114.529 22.72C114.225 23.248 113.833 23.704 113.353 24.088C112.889 24.472 112.353 24.768 111.745 24.976C111.153 25.184 110.489 25.288 109.753 25.288ZM125.908 25.288C124.612 25.288 123.46 24.992 122.452 24.4C121.46 23.792 120.668 22.976 120.076 21.952C119.5 20.928 119.212 19.768 119.212 18.472C119.212 17.192 119.5 16.04 120.076 15.016C120.652 13.992 121.444 13.192 122.452 12.616C123.46 12.024 124.612 11.728 125.908 11.728C126.788 11.728 127.612 11.888 128.38 12.208C129.148 12.512 129.812 12.936 130.372 13.48C130.948 14.024 131.372 14.656 131.644 15.376L129.268 16.48C128.996 15.808 128.556 15.272 127.948 14.872C127.356 14.456 126.676 14.248 125.908 14.248C125.172 14.248 124.508 14.432 123.916 14.8C123.34 15.152 122.884 15.656 122.548 16.312C122.212 16.952 122.044 17.68 122.044 18.496C122.044 19.312 122.212 20.048 122.548 20.704C122.884 21.344 123.34 21.848 123.916 22.216C124.508 22.584 125.172 22.768 125.908 22.768C126.692 22.768 127.372 22.568 127.948 22.168C128.54 21.752 128.98 21.2 129.268 20.512L131.644 21.64C131.388 22.328 130.972 22.952 130.396 23.512C129.836 24.056 129.172 24.488 128.404 24.808C127.636 25.128 126.804 25.288 125.908 25.288ZM134.295 25V6.832H137.007V19L135.951 18.736L142.455 12.016H145.839L140.943 17.224L146.055 25H142.935L138.375 18.112L139.983 17.896L136.143 21.976L137.007 20.176V25H134.295ZM148.32 19.696V17.296H157.92V19.696H148.32ZM166.306 25.288C164.978 25.288 163.81 24.96 162.802 24.304C161.81 23.648 161.114 22.768 160.714 21.664L162.802 20.68C163.154 21.416 163.634 22 164.242 22.432C164.866 22.864 165.554 23.08 166.306 23.08C166.946 23.08 167.466 22.936 167.866 22.648C168.266 22.36 168.466 21.968 168.466 21.472C168.466 21.152 168.378 20.896 168.202 20.704C168.026 20.496 167.802 20.328 167.53 20.2C167.274 20.072 167.01 19.976 166.738 19.912L164.698 19.336C163.578 19.016 162.738 18.536 162.178 17.896C161.634 17.24 161.362 16.48 161.362 15.616C161.362 14.832 161.562 14.152 161.962 13.576C162.362 12.984 162.914 12.528 163.618 12.208C164.322 11.888 165.114 11.728 165.994 11.728C167.178 11.728 168.234 12.024 169.162 12.616C170.09 13.192 170.746 14 171.13 15.04L169.042 16.024C168.786 15.4 168.378 14.904 167.818 14.536C167.274 14.168 166.658 13.984 165.97 13.984C165.378 13.984 164.906 14.128 164.554 14.416C164.202 14.688 164.026 15.048 164.026 15.496C164.026 15.8 164.106 16.056 164.266 16.264C164.426 16.456 164.634 16.616 164.89 16.744C165.146 16.856 165.41 16.952 165.682 17.032L167.794 17.656C168.866 17.96 169.69 18.44 170.266 19.096C170.842 19.736 171.13 20.504 171.13 21.4C171.13 22.168 170.922 22.848 170.506 23.44C170.106 24.016 169.546 24.472 168.826 24.808C168.106 25.128 167.266 25.288 166.306 25.288ZM179.403 25.144C178.043 25.144 176.987 24.76 176.235 23.992C175.483 23.224 175.107 22.144 175.107 20.752V14.464H172.827V12.016H173.187C173.795 12.016 174.267 11.84 174.603 11.488C174.939 11.136 175.107 10.656 175.107 10.048V9.04H177.819V12.016H180.771V14.464H177.819V20.632C177.819 21.08 177.891 21.464 178.035 21.784C178.179 22.088 178.411 22.328 178.731 22.504C179.051 22.664 179.467 22.744 179.979 22.744C180.107 22.744 180.251 22.736 180.411 22.72C180.571 22.704 180.723 22.688 180.867 22.672V25C180.643 25.032 180.395 25.064 180.123 25.096C179.851 25.128 179.611 25.144 179.403 25.144ZM184.666 30.304C184.346 30.304 184.026 30.272 183.706 30.208C183.402 30.16 183.122 30.08 182.866 29.968V27.64C183.058 27.688 183.29 27.728 183.562 27.76C183.834 27.808 184.098 27.832 184.354 27.832C185.106 27.832 185.658 27.664 186.01 27.328C186.378 27.008 186.706 26.504 186.994 25.816L187.858 23.848L187.81 26.128L182.194 12.016H185.098L189.25 22.84H188.266L192.394 12.016H195.322L189.586 26.416C189.282 27.184 188.898 27.856 188.434 28.432C187.986 29.024 187.45 29.48 186.826 29.8C186.218 30.136 185.498 30.304 184.666 30.304ZM197.178 25V6.832H199.89V25H197.178ZM209.157 25.288C207.861 25.288 206.709 24.992 205.701 24.4C204.709 23.792 203.933 22.976 203.373 21.952C202.813 20.912 202.533 19.752 202.533 18.472C202.533 17.16 202.813 16 203.373 14.992C203.949 13.984 204.717 13.192 205.677 12.616C206.637 12.024 207.725 11.728 208.941 11.728C209.917 11.728 210.789 11.896 211.557 12.232C212.325 12.568 212.973 13.032 213.501 13.624C214.029 14.2 214.429 14.864 214.701 15.616C214.989 16.368 215.133 17.168 215.133 18.016C215.133 18.224 215.125 18.44 215.109 18.664C215.093 18.888 215.061 19.096 215.013 19.288H204.669V17.128H213.477L212.181 18.112C212.341 17.328 212.285 16.632 212.013 16.024C211.757 15.4 211.357 14.912 210.813 14.56C210.285 14.192 209.661 14.008 208.941 14.008C208.221 14.008 207.581 14.192 207.021 14.56C206.461 14.912 206.029 15.424 205.725 16.096C205.421 16.752 205.301 17.552 205.365 18.496C205.285 19.376 205.405 20.144 205.725 20.8C206.061 21.456 206.525 21.968 207.117 22.336C207.725 22.704 208.413 22.888 209.181 22.888C209.965 22.888 210.629 22.712 211.173 22.36C211.733 22.008 212.173 21.552 212.493 20.992L214.701 22.072C214.445 22.68 214.045 23.232 213.501 23.728C212.973 24.208 212.333 24.592 211.581 24.88C210.845 25.152 210.037 25.288 209.157 25.288Z" fill="black"/>
<rect x="226.5" y="1.5" width="52" height="27" rx="13.5" fill="url(#paint0_linear_6880_60925)" fill-opacity="0.3"/>
<path d="M238.119 20V9.81818H239.605V13.6016H239.695C239.781 13.4425 239.905 13.2585 240.067 13.0497C240.23 12.8409 240.455 12.6586 240.744 12.5028C241.032 12.3438 241.413 12.2642 241.887 12.2642C242.504 12.2642 243.054 12.42 243.538 12.7315C244.022 13.0431 244.401 13.4922 244.676 14.0788C244.955 14.6655 245.094 15.3714 245.094 16.1967C245.094 17.022 244.956 17.7296 244.681 18.3196C244.406 18.9062 244.028 19.3587 243.548 19.6768C243.067 19.9917 242.518 20.1491 241.902 20.1491C241.438 20.1491 241.058 20.0713 240.763 19.9155C240.472 19.7597 240.243 19.5774 240.077 19.3686C239.912 19.1598 239.784 18.9742 239.695 18.8118H239.57V20H238.119ZM239.575 16.1818C239.575 16.7187 239.653 17.1894 239.809 17.5938C239.965 17.9981 240.19 18.3146 240.485 18.5433C240.78 18.7687 241.141 18.8814 241.569 18.8814C242.013 18.8814 242.384 18.7637 242.683 18.5284C242.981 18.2898 243.206 17.9666 243.359 17.5589C243.514 17.1513 243.592 16.6922 243.592 16.1818C243.592 15.678 243.516 15.2256 243.364 14.8246C243.214 14.4235 242.989 14.107 242.688 13.875C242.389 13.643 242.016 13.527 241.569 13.527C241.138 13.527 240.773 13.638 240.475 13.8601C240.18 14.0821 239.956 14.392 239.804 14.7898C239.652 15.1875 239.575 15.6515 239.575 16.1818ZM250.054 20.1541C249.302 20.1541 248.654 19.9934 248.11 19.6719C247.57 19.3471 247.152 18.8913 246.857 18.3047C246.566 17.7147 246.42 17.0237 246.42 16.2315C246.42 15.4493 246.566 14.7599 246.857 14.1634C247.152 13.5668 247.563 13.1011 248.09 12.7663C248.621 12.4316 249.24 12.2642 249.95 12.2642C250.381 12.2642 250.798 12.3355 251.203 12.478C251.607 12.6205 251.97 12.8442 252.291 13.1491C252.613 13.4541 252.866 13.8501 253.052 14.3374C253.238 14.8213 253.33 15.4096 253.33 16.1023V16.6293H247.26V15.5156H251.874C251.874 15.1245 251.794 14.7782 251.635 14.4766C251.476 14.1716 251.252 13.9313 250.964 13.7557C250.679 13.58 250.344 13.4922 249.96 13.4922C249.542 13.4922 249.177 13.5949 248.866 13.8004C248.558 14.0026 248.319 14.2678 248.15 14.5959C247.984 14.9207 247.901 15.2737 247.901 15.6548V16.5249C247.901 17.0353 247.991 17.4695 248.17 17.8274C248.352 18.1854 248.606 18.4588 248.931 18.6477C249.255 18.8333 249.635 18.9261 250.069 18.9261C250.351 18.9261 250.608 18.8864 250.84 18.8068C251.072 18.724 251.272 18.6013 251.441 18.4389C251.61 18.2765 251.74 18.076 251.829 17.8374L253.236 18.0909C253.123 18.5052 252.921 18.8681 252.629 19.1797C252.341 19.4879 251.978 19.7282 251.541 19.9006C251.106 20.0696 250.611 20.1541 250.054 20.1541ZM258.544 12.3636V13.5568H254.373V12.3636H258.544ZM255.492 10.5341H256.978V17.7578C256.978 18.0462 257.021 18.2633 257.108 18.4091C257.194 18.5516 257.305 18.6494 257.441 18.7024C257.58 18.7521 257.731 18.777 257.893 18.777C258.012 18.777 258.117 18.7687 258.206 18.7521C258.296 18.7356 258.365 18.7223 258.415 18.7124L258.684 19.9403C258.597 19.9735 258.475 20.0066 258.316 20.0398C258.157 20.0762 257.958 20.0961 257.719 20.0994C257.328 20.1061 256.963 20.0365 256.625 19.8906C256.287 19.7448 256.014 19.5194 255.805 19.2145C255.596 18.9096 255.492 18.5268 255.492 18.0661V10.5341ZM262.411 20.169C261.927 20.169 261.49 20.0795 261.099 19.9006C260.707 19.7183 260.398 19.4548 260.169 19.1101C259.943 18.7654 259.831 18.3428 259.831 17.8423C259.831 17.4115 259.914 17.0568 260.079 16.7784C260.245 16.5 260.469 16.2796 260.751 16.1172C261.032 15.9548 261.347 15.8321 261.695 15.7493C262.043 15.6664 262.398 15.6035 262.759 15.5604C263.216 15.5073 263.588 15.4643 263.873 15.4311C264.158 15.3946 264.365 15.3366 264.494 15.2571C264.623 15.1776 264.688 15.0483 264.688 14.8693V14.8345C264.688 14.4003 264.565 14.0639 264.32 13.8253C264.078 13.5866 263.717 13.4673 263.236 13.4673C262.736 13.4673 262.341 13.5784 262.053 13.8004C261.768 14.0192 261.571 14.2628 261.461 14.5312L260.064 14.2131C260.23 13.7491 260.472 13.3745 260.79 13.0895C261.112 12.8011 261.481 12.5923 261.899 12.4631C262.317 12.3305 262.756 12.2642 263.216 12.2642C263.521 12.2642 263.845 12.3007 264.186 12.3736C264.531 12.4432 264.852 12.5724 265.15 12.7614C265.452 12.9503 265.699 13.2204 265.891 13.5717C266.083 13.9197 266.18 14.3722 266.18 14.929V20H264.728V18.956H264.668C264.572 19.1482 264.428 19.3371 264.236 19.5227C264.043 19.7083 263.796 19.8625 263.495 19.9851C263.193 20.1077 262.832 20.169 262.411 20.169ZM262.734 18.9759C263.145 18.9759 263.497 18.8946 263.788 18.7322C264.083 18.5698 264.307 18.3577 264.459 18.0959C264.615 17.8307 264.693 17.5473 264.693 17.2457V16.2614C264.64 16.3144 264.537 16.3641 264.385 16.4105C264.236 16.4536 264.065 16.4917 263.873 16.5249C263.68 16.5547 263.493 16.5829 263.311 16.6094C263.129 16.6326 262.976 16.6525 262.854 16.669C262.565 16.7055 262.302 16.7668 262.063 16.853C261.828 16.9392 261.639 17.0634 261.496 17.2259C261.357 17.3849 261.287 17.5971 261.287 17.8622C261.287 18.2301 261.423 18.5085 261.695 18.6974C261.967 18.883 262.313 18.9759 262.734 18.9759Z" fill="#171717"/>
<rect x="226.5" y="1.5" width="52" height="27" rx="13.5" stroke="#E5E5E5"/>
<defs>
<linearGradient id="paint0_linear_6880_60925" x1="273.865" y1="2" x2="239.61" y2="13.1819" gradientUnits="userSpaceOnUse">
<stop offset="0.104167" stop-color="#1581E4" stop-opacity="0.38"/>
<stop offset="0.4375" stop-color="#6B36AF" stop-opacity="0.21"/>
<stop offset="0.71875" stop-color="#C8A6FF" stop-opacity="0.25"/>
<stop offset="1" stop-color="#2AB4D9" stop-opacity="0.07"/>
</linearGradient>
</defs>
</svg>
