<svg width="281" height="60" viewBox="0 0 281 31" fill="none" xmlns="http://www.w3.org/2000/svg">
<rect y="3" width="7.19982" height="7.19982" rx="2.5" fill="#262626"/>
<rect y="11.4" width="7.19982" height="7.19982" rx="2.5" fill="#262626"/>
<rect y="19.8002" width="7.19982" height="7.19982" rx="2.5" fill="#262626"/>
<rect x="8.40039" y="3" width="7.19982" height="7.19982" rx="2.5" fill="#262626"/>
<rect x="8.40039" y="11.4" width="7.19982" height="7.19982" rx="2.5" fill="#262626"/>
<rect x="8.40039" y="19.8002" width="7.19982" height="7.19982" rx="2.5" fill="#262626"/>
<rect x="16.8008" y="3" width="7.19982" height="7.19982" rx="2.5" fill="#262626"/>
<rect x="16.8008" y="11.4" width="7.19982" height="7.19982" rx="2.5" fill="#262626"/>
<rect x="16.8008" y="19.8002" width="7.19982" height="7.19982" rx="2.5" fill="#262626"/>
<path d="M11.3632 13.8855L12.8203 7.20001L6.59961 16.1141H12.0357L10.5786 22.7996L16.7994 13.8855H11.3632Z" fill="#262626" stroke="#0077E6" stroke-width="1.5625" stroke-linecap="round" stroke-linejoin="round"/>
<path d="M41.849 30.28C40.905 30.28 40.033 30.128 39.233 29.824C38.433 29.52 37.745 29.096 37.169 28.552C36.593 28.024 36.161 27.4 35.873 26.68L38.369 25.648C38.593 26.256 39.001 26.76 39.593 27.16C40.201 27.56 40.945 27.76 41.825 27.76C42.513 27.76 43.129 27.624 43.673 27.352C44.217 27.096 44.649 26.712 44.969 26.2C45.289 25.704 45.449 25.104 45.449 24.4V21.472L45.929 22.024C45.481 22.856 44.857 23.488 44.057 23.92C43.273 24.352 42.385 24.568 41.393 24.568C40.193 24.568 39.113 24.288 38.153 23.728C37.193 23.168 36.433 22.4 35.873 21.424C35.329 20.448 35.057 19.352 35.057 18.136C35.057 16.904 35.329 15.808 35.873 14.848C36.433 13.888 37.185 13.128 38.129 12.568C39.073 12.008 40.153 11.728 41.369 11.728C42.361 11.728 43.241 11.944 44.009 12.376C44.793 12.792 45.433 13.4 45.929 14.2L45.569 14.872V12.016H48.137V24.4C48.137 25.52 47.865 26.52 47.321 27.4C46.793 28.296 46.057 29 45.113 29.512C44.169 30.024 43.081 30.28 41.849 30.28ZM41.705 22.048C42.425 22.048 43.065 21.88 43.625 21.544C44.185 21.192 44.625 20.728 44.945 20.152C45.281 19.56 45.449 18.896 45.449 18.16C45.449 17.424 45.281 16.76 44.945 16.168C44.609 15.576 44.161 15.112 43.601 14.776C43.041 14.424 42.409 14.248 41.705 14.248C40.969 14.248 40.313 14.424 39.737 14.776C39.161 15.112 38.705 15.576 38.369 16.168C38.049 16.744 37.889 17.408 37.889 18.16C37.889 18.88 38.049 19.536 38.369 20.128C38.705 20.72 39.161 21.192 39.737 21.544C40.313 21.88 40.969 22.048 41.705 22.048ZM51.3115 25V6.832H54.0235V25H51.3115ZM61.8264 25.288C60.8504 25.288 59.9944 25.072 59.2584 24.64C58.5224 24.192 57.9464 23.576 57.5304 22.792C57.1304 21.992 56.9304 21.072 56.9304 20.032V12.016H59.6424V19.792C59.6424 20.384 59.7624 20.904 60.0024 21.352C60.2424 21.8 60.5784 22.152 61.0104 22.408C61.4424 22.648 61.9384 22.768 62.4984 22.768C63.0744 22.768 63.5784 22.64 64.0104 22.384C64.4424 22.128 64.7784 21.768 65.0184 21.304C65.2744 20.84 65.4024 20.296 65.4024 19.672V12.016H68.0904V25H65.5224V22.456L65.8104 22.792C65.5064 23.592 65.0024 24.208 64.2984 24.64C63.5944 25.072 62.7704 25.288 61.8264 25.288ZM77.3529 25.288C76.0569 25.288 74.9049 24.992 73.8969 24.4C72.9049 23.792 72.1289 22.976 71.5689 21.952C71.0089 20.912 70.7289 19.752 70.7289 18.472C70.7289 17.16 71.0089 16 71.5689 14.992C72.1449 13.984 72.9129 13.192 73.8729 12.616C74.8329 12.024 75.9209 11.728 77.1369 11.728C78.1129 11.728 78.9849 11.896 79.7529 12.232C80.5209 12.568 81.1689 13.032 81.6969 13.624C82.2249 14.2 82.6249 14.864 82.8969 15.616C83.1849 16.368 83.3289 17.168 83.3289 18.016C83.3289 18.224 83.3209 18.44 83.3049 18.664C83.2889 18.888 83.2569 19.096 83.2089 19.288H72.8649V17.128H81.6729L80.3769 18.112C80.5369 17.328 80.4809 16.632 80.2089 16.024C79.9529 15.4 79.5529 14.912 79.0089 14.56C78.4809 14.192 77.8569 14.008 77.1369 14.008C76.4169 14.008 75.7769 14.192 75.2169 14.56C74.6569 14.912 74.2249 15.424 73.9209 16.096C73.6169 16.752 73.4969 17.552 73.5609 18.496C73.4809 19.376 73.6009 20.144 73.9209 20.8C74.2569 21.456 74.7209 21.968 75.3129 22.336C75.9209 22.704 76.6089 22.888 77.3769 22.888C78.1609 22.888 78.8249 22.712 79.3689 22.36C79.9289 22.008 80.3689 21.552 80.6889 20.992L82.8969 22.072C82.6409 22.68 82.2409 23.232 81.6969 23.728C81.1689 24.208 80.5289 24.592 79.7769 24.88C79.0409 25.152 78.2329 25.288 77.3529 25.288ZM90.7756 25.288C89.4476 25.288 88.2796 24.96 87.2716 24.304C86.2796 23.648 85.5836 22.768 85.1836 21.664L87.2716 20.68C87.6236 21.416 88.1036 22 88.7116 22.432C89.3356 22.864 90.0236 23.08 90.7756 23.08C91.4156 23.08 91.9356 22.936 92.3356 22.648C92.7356 22.36 92.9356 21.968 92.9356 21.472C92.9356 21.152 92.8476 20.896 92.6716 20.704C92.4956 20.496 92.2716 20.328 91.9996 20.2C91.7436 20.072 91.4796 19.976 91.2076 19.912L89.1676 19.336C88.0476 19.016 87.2076 18.536 86.6476 17.896C86.1036 17.24 85.8316 16.48 85.8316 15.616C85.8316 14.832 86.0316 14.152 86.4316 13.576C86.8316 12.984 87.3836 12.528 88.0876 12.208C88.7916 11.888 89.5836 11.728 90.4636 11.728C91.6476 11.728 92.7036 12.024 93.6316 12.616C94.5596 13.192 95.2156 14 95.5996 15.04L93.5116 16.024C93.2556 15.4 92.8476 14.904 92.2876 14.536C91.7436 14.168 91.1276 13.984 90.4396 13.984C89.8476 13.984 89.3756 14.128 89.0236 14.416C88.6716 14.688 88.4956 15.048 88.4956 15.496C88.4956 15.8 88.5756 16.056 88.7356 16.264C88.8956 16.456 89.1036 16.616 89.3596 16.744C89.6156 16.856 89.8796 16.952 90.1516 17.032L92.2636 17.656C93.3356 17.96 94.1596 18.44 94.7356 19.096C95.3116 19.736 95.5996 20.504 95.5996 21.4C95.5996 22.168 95.3916 22.848 94.9756 23.44C94.5756 24.016 94.0156 24.472 93.2956 24.808C92.5756 25.128 91.7356 25.288 90.7756 25.288ZM103.873 25.144C102.513 25.144 101.457 24.76 100.705 23.992C99.9529 23.224 99.5769 22.144 99.5769 20.752V14.464H97.2969V12.016H97.6569C98.2649 12.016 98.7369 11.84 99.0729 11.488C99.4089 11.136 99.5769 10.656 99.5769 10.048V9.04H102.289V12.016H105.241V14.464H102.289V20.632C102.289 21.08 102.361 21.464 102.505 21.784C102.649 22.088 102.881 22.328 103.201 22.504C103.521 22.664 103.937 22.744 104.449 22.744C104.577 22.744 104.721 22.736 104.881 22.72C105.041 22.704 105.193 22.688 105.337 22.672V25C105.113 25.032 104.865 25.064 104.593 25.096C104.321 25.128 104.081 25.144 103.873 25.144ZM111.754 25.288C110.874 25.288 110.098 25.136 109.426 24.832C108.77 24.512 108.258 24.08 107.89 23.536C107.522 22.976 107.338 22.32 107.338 21.568C107.338 20.864 107.49 20.232 107.794 19.672C108.114 19.112 108.602 18.64 109.258 18.256C109.914 17.872 110.738 17.6 111.73 17.44L116.242 16.696V18.832L112.258 19.528C111.538 19.656 111.01 19.888 110.674 20.224C110.338 20.544 110.17 20.96 110.17 21.472C110.17 21.968 110.354 22.376 110.722 22.696C111.106 23 111.594 23.152 112.186 23.152C112.922 23.152 113.562 22.992 114.106 22.672C114.666 22.352 115.098 21.928 115.402 21.4C115.706 20.856 115.858 20.256 115.858 19.6V16.264C115.858 15.624 115.618 15.104 115.138 14.704C114.674 14.288 114.05 14.08 113.266 14.08C112.546 14.08 111.914 14.272 111.37 14.656C110.842 15.024 110.45 15.504 110.194 16.096L107.938 14.968C108.178 14.328 108.57 13.768 109.114 13.288C109.658 12.792 110.29 12.408 111.01 12.136C111.746 11.864 112.522 11.728 113.338 11.728C114.362 11.728 115.266 11.92 116.05 12.304C116.85 12.688 117.466 13.224 117.898 13.912C118.346 14.584 118.57 15.368 118.57 16.264V25H115.978V22.648L116.53 22.72C116.226 23.248 115.834 23.704 115.354 24.088C114.89 24.472 114.354 24.768 113.746 24.976C113.154 25.184 112.49 25.288 111.754 25.288ZM127.909 25.288C126.613 25.288 125.461 24.992 124.453 24.4C123.461 23.792 122.669 22.976 122.077 21.952C121.501 20.928 121.213 19.768 121.213 18.472C121.213 17.192 121.501 16.04 122.077 15.016C122.653 13.992 123.445 13.192 124.453 12.616C125.461 12.024 126.613 11.728 127.909 11.728C128.789 11.728 129.613 11.888 130.381 12.208C131.149 12.512 131.813 12.936 132.373 13.48C132.949 14.024 133.373 14.656 133.645 15.376L131.269 16.48C130.997 15.808 130.557 15.272 129.949 14.872C129.357 14.456 128.677 14.248 127.909 14.248C127.173 14.248 126.509 14.432 125.917 14.8C125.341 15.152 124.885 15.656 124.549 16.312C124.213 16.952 124.045 17.68 124.045 18.496C124.045 19.312 124.213 20.048 124.549 20.704C124.885 21.344 125.341 21.848 125.917 22.216C126.509 22.584 127.173 22.768 127.909 22.768C128.693 22.768 129.373 22.568 129.949 22.168C130.541 21.752 130.981 21.2 131.269 20.512L133.645 21.64C133.389 22.328 132.973 22.952 132.397 23.512C131.837 24.056 131.173 24.488 130.405 24.808C129.637 25.128 128.805 25.288 127.909 25.288ZM136.296 25V6.832H139.008V19L137.952 18.736L144.456 12.016H147.84L142.944 17.224L148.056 25H144.936L140.376 18.112L141.984 17.896L138.144 21.976L139.008 20.176V25H136.296ZM150.321 19.696V17.296H159.921V19.696H150.321ZM168.307 25.288C166.979 25.288 165.811 24.96 164.803 24.304C163.811 23.648 163.115 22.768 162.715 21.664L164.803 20.68C165.155 21.416 165.635 22 166.243 22.432C166.867 22.864 167.555 23.08 168.307 23.08C168.947 23.08 169.467 22.936 169.867 22.648C170.267 22.36 170.467 21.968 170.467 21.472C170.467 21.152 170.379 20.896 170.203 20.704C170.027 20.496 169.803 20.328 169.531 20.2C169.275 20.072 169.011 19.976 168.739 19.912L166.699 19.336C165.579 19.016 164.739 18.536 164.179 17.896C163.635 17.24 163.363 16.48 163.363 15.616C163.363 14.832 163.563 14.152 163.963 13.576C164.363 12.984 164.915 12.528 165.619 12.208C166.323 11.888 167.115 11.728 167.995 11.728C169.179 11.728 170.235 12.024 171.163 12.616C172.091 13.192 172.747 14 173.131 15.04L171.043 16.024C170.787 15.4 170.379 14.904 169.819 14.536C169.275 14.168 168.659 13.984 167.971 13.984C167.379 13.984 166.907 14.128 166.555 14.416C166.203 14.688 166.027 15.048 166.027 15.496C166.027 15.8 166.107 16.056 166.267 16.264C166.427 16.456 166.635 16.616 166.891 16.744C167.147 16.856 167.411 16.952 167.683 17.032L169.795 17.656C170.867 17.96 171.691 18.44 172.267 19.096C172.843 19.736 173.131 20.504 173.131 21.4C173.131 22.168 172.923 22.848 172.507 23.44C172.107 24.016 171.547 24.472 170.827 24.808C170.107 25.128 169.267 25.288 168.307 25.288ZM181.404 25.144C180.044 25.144 178.988 24.76 178.236 23.992C177.484 23.224 177.108 22.144 177.108 20.752V14.464H174.828V12.016H175.188C175.796 12.016 176.268 11.84 176.604 11.488C176.94 11.136 177.108 10.656 177.108 10.048V9.04H179.82V12.016H182.772V14.464H179.82V20.632C179.82 21.08 179.892 21.464 180.036 21.784C180.18 22.088 180.412 22.328 180.732 22.504C181.052 22.664 181.468 22.744 181.98 22.744C182.108 22.744 182.252 22.736 182.412 22.72C182.572 22.704 182.724 22.688 182.868 22.672V25C182.644 25.032 182.396 25.064 182.124 25.096C181.852 25.128 181.612 25.144 181.404 25.144ZM186.667 30.304C186.347 30.304 186.027 30.272 185.707 30.208C185.403 30.16 185.123 30.08 184.867 29.968V27.64C185.059 27.688 185.291 27.728 185.563 27.76C185.835 27.808 186.099 27.832 186.355 27.832C187.107 27.832 187.659 27.664 188.011 27.328C188.379 27.008 188.707 26.504 188.995 25.816L189.859 23.848L189.811 26.128L184.195 12.016H187.099L191.251 22.84H190.267L194.395 12.016H197.323L191.587 26.416C191.283 27.184 190.899 27.856 190.435 28.432C189.987 29.024 189.451 29.48 188.827 29.8C188.219 30.136 187.499 30.304 186.667 30.304ZM199.179 25V6.832H201.891V25H199.179ZM211.158 25.288C209.862 25.288 208.71 24.992 207.702 24.4C206.71 23.792 205.934 22.976 205.374 21.952C204.814 20.912 204.534 19.752 204.534 18.472C204.534 17.16 204.814 16 205.374 14.992C205.95 13.984 206.718 13.192 207.678 12.616C208.638 12.024 209.726 11.728 210.942 11.728C211.918 11.728 212.79 11.896 213.558 12.232C214.326 12.568 214.974 13.032 215.502 13.624C216.03 14.2 216.43 14.864 216.702 15.616C216.99 16.368 217.134 17.168 217.134 18.016C217.134 18.224 217.126 18.44 217.11 18.664C217.094 18.888 217.062 19.096 217.014 19.288H206.67V17.128H215.478L214.182 18.112C214.342 17.328 214.286 16.632 214.014 16.024C213.758 15.4 213.358 14.912 212.814 14.56C212.286 14.192 211.662 14.008 210.942 14.008C210.222 14.008 209.582 14.192 209.022 14.56C208.462 14.912 208.03 15.424 207.726 16.096C207.422 16.752 207.302 17.552 207.366 18.496C207.286 19.376 207.406 20.144 207.726 20.8C208.062 21.456 208.526 21.968 209.118 22.336C209.726 22.704 210.414 22.888 211.182 22.888C211.966 22.888 212.63 22.712 213.174 22.36C213.734 22.008 214.174 21.552 214.494 20.992L216.702 22.072C216.446 22.68 216.046 23.232 215.502 23.728C214.974 24.208 214.334 24.592 213.582 24.88C212.846 25.152 212.038 25.288 211.158 25.288Z" fill="white"/>
<rect x="228.501" y="1.5" width="52" height="27" rx="13.5" fill="url(#paint0_linear_6875_60709)" fill-opacity="0.3"/>
<path d="M240.12 20V9.81818H241.606V13.6016H241.696C241.782 13.4425 241.906 13.2585 242.068 13.0497C242.231 12.8409 242.456 12.6586 242.745 12.5028C243.033 12.3438 243.414 12.2642 243.888 12.2642C244.505 12.2642 245.055 12.42 245.539 12.7315C246.023 13.0431 246.402 13.4922 246.677 14.0788C246.956 14.6655 247.095 15.3714 247.095 16.1967C247.095 17.022 246.957 17.7296 246.682 18.3196C246.407 18.9062 246.029 19.3587 245.549 19.6768C245.068 19.9917 244.519 20.1491 243.903 20.1491C243.439 20.1491 243.059 20.0713 242.764 19.9155C242.473 19.7597 242.244 19.5774 242.078 19.3686C241.913 19.1598 241.785 18.9742 241.696 18.8118H241.571V20H240.12ZM241.576 16.1818C241.576 16.7187 241.654 17.1894 241.81 17.5938C241.966 17.9981 242.191 18.3146 242.486 18.5433C242.781 18.7687 243.142 18.8814 243.57 18.8814C244.014 18.8814 244.385 18.7637 244.684 18.5284C244.982 18.2898 245.207 17.9666 245.36 17.5589C245.515 17.1513 245.593 16.6922 245.593 16.1818C245.593 15.678 245.517 15.2256 245.365 14.8246C245.215 14.4235 244.99 14.107 244.688 13.875C244.39 13.643 244.017 13.527 243.57 13.527C243.139 13.527 242.774 13.638 242.476 13.8601C242.181 14.0821 241.957 14.392 241.805 14.7898C241.652 15.1875 241.576 15.6515 241.576 16.1818ZM252.055 20.1541C251.303 20.1541 250.655 19.9934 250.111 19.6719C249.571 19.3471 249.153 18.8913 248.858 18.3047C248.567 17.7147 248.421 17.0237 248.421 16.2315C248.421 15.4493 248.567 14.7599 248.858 14.1634C249.153 13.5668 249.564 13.1011 250.091 12.7663C250.622 12.4316 251.241 12.2642 251.951 12.2642C252.382 12.2642 252.799 12.3355 253.204 12.478C253.608 12.6205 253.971 12.8442 254.292 13.1491C254.614 13.4541 254.867 13.8501 255.053 14.3374C255.239 14.8213 255.331 15.4096 255.331 16.1023V16.6293H249.261V15.5156H253.875C253.875 15.1245 253.795 14.7782 253.636 14.4766C253.477 14.1716 253.253 13.9313 252.965 13.7557C252.68 13.58 252.345 13.4922 251.961 13.4922C251.543 13.4922 251.178 13.5949 250.867 13.8004C250.559 14.0026 250.32 14.2678 250.151 14.5959C249.985 14.9207 249.902 15.2737 249.902 15.6548V16.5249C249.902 17.0353 249.992 17.4695 250.171 17.8274C250.353 18.1854 250.607 18.4588 250.932 18.6477C251.256 18.8333 251.636 18.9261 252.07 18.9261C252.352 18.9261 252.609 18.8864 252.841 18.8068C253.073 18.724 253.273 18.6013 253.442 18.4389C253.611 18.2765 253.741 18.076 253.83 17.8374L255.237 18.0909C255.124 18.5052 254.922 18.8681 254.63 19.1797C254.342 19.4879 253.979 19.7282 253.542 19.9006C253.107 20.0696 252.612 20.1541 252.055 20.1541ZM260.545 12.3636V13.5568H256.374V12.3636H260.545ZM257.493 10.5341H258.979V17.7578C258.979 18.0462 259.022 18.2633 259.109 18.4091C259.195 18.5516 259.306 18.6494 259.442 18.7024C259.581 18.7521 259.732 18.777 259.894 18.777C260.013 18.777 260.118 18.7687 260.207 18.7521C260.297 18.7356 260.366 18.7223 260.416 18.7124L260.685 19.9403C260.598 19.9735 260.476 20.0066 260.317 20.0398C260.158 20.0762 259.959 20.0961 259.72 20.0994C259.329 20.1061 258.964 20.0365 258.626 19.8906C258.288 19.7448 258.015 19.5194 257.806 19.2145C257.597 18.9096 257.493 18.5268 257.493 18.0661V10.5341ZM264.412 20.169C263.928 20.169 263.491 20.0795 263.1 19.9006C262.708 19.7183 262.399 19.4548 262.17 19.1101C261.944 18.7654 261.832 18.3428 261.832 17.8423C261.832 17.4115 261.915 17.0568 262.08 16.7784C262.246 16.5 262.47 16.2796 262.752 16.1172C263.033 15.9548 263.348 15.8321 263.696 15.7493C264.044 15.6664 264.399 15.6035 264.76 15.5604C265.217 15.5073 265.589 15.4643 265.874 15.4311C266.159 15.3946 266.366 15.3366 266.495 15.2571C266.624 15.1776 266.689 15.0483 266.689 14.8693V14.8345C266.689 14.4003 266.566 14.0639 266.321 13.8253C266.079 13.5866 265.718 13.4673 265.237 13.4673C264.737 13.4673 264.342 13.5784 264.054 13.8004C263.769 14.0192 263.572 14.2628 263.462 14.5312L262.065 14.2131C262.231 13.7491 262.473 13.3745 262.791 13.0895C263.113 12.8011 263.482 12.5923 263.9 12.4631C264.318 12.3305 264.757 12.2642 265.217 12.2642C265.522 12.2642 265.845 12.3007 266.187 12.3736C266.532 12.4432 266.853 12.5724 267.151 12.7614C267.453 12.9503 267.7 13.2204 267.892 13.5717C268.084 13.9197 268.18 14.3722 268.18 14.929V20H266.729V18.956H266.669C266.573 19.1482 266.429 19.3371 266.237 19.5227C266.044 19.7083 265.797 19.8625 265.496 19.9851C265.194 20.1077 264.833 20.169 264.412 20.169ZM264.735 18.9759C265.146 18.9759 265.497 18.8946 265.789 18.7322C266.084 18.5698 266.308 18.3577 266.46 18.0959C266.616 17.8307 266.694 17.5473 266.694 17.2457V16.2614C266.641 16.3144 266.538 16.3641 266.386 16.4105C266.237 16.4536 266.066 16.4917 265.874 16.5249C265.681 16.5547 265.494 16.5829 265.312 16.6094C265.13 16.6326 264.977 16.6525 264.854 16.669C264.566 16.7055 264.303 16.7668 264.064 16.853C263.829 16.9392 263.64 17.0634 263.497 17.2259C263.358 17.3849 263.288 17.5971 263.288 17.8622C263.288 18.2301 263.424 18.5085 263.696 18.6974C263.968 18.883 264.314 18.9759 264.735 18.9759Z" fill="#FAFAFA"/>
<rect x="228.501" y="1.5" width="52" height="27" rx="13.5" stroke="#404040"/>
<defs>
<linearGradient id="paint0_linear_6875_60709" x1="252.711" y1="28" x2="297.183" y2="13.483" gradientUnits="userSpaceOnUse">
<stop offset="0.106494" stop-color="#1581E4" stop-opacity="0.37"/>
<stop offset="0.48411" stop-color="#6F26CE" stop-opacity="0.72"/>
<stop offset="0.830257" stop-color="#2AB4D9" stop-opacity="0.52"/>
</linearGradient>
</defs>
</svg>
