    <svg
      width="157"
      height="31"
      viewBox="0 0 157 31"
      fill="none"
      xmlns="http://www.w3.org/2000/svg"
    >
      <path
        d="M33.6956 16.5552L17.2804 26.3275L0.868653 16.55L0.866943 20.2224L17.2787 29.9998L33.6939 20.2275L33.6956 16.5552Z"
        fill="#0077E6"
      />
      <path
        d="M33.6956 10.5552L17.2804 20.3275L0.866943 10.55V14.419L17.2787 24.1964L33.6939 14.4241L33.6956 10.5552Z"
        fill="#0077E6"
      />
      <path
        d="M23.7197 3.60588L20.7211 5.33775L14.483 8.93654L14.4864 8.94167L17.4815 10.6701L23.7214 7.06961L26.9661 8.94338L17.473 14.4228L7.9815 8.93996L17.4747 3.46227L20.4732 1.73211L17.4747 0.000244141L1.98608 8.93996L17.473 17.8848L32.9633 8.94338L26.72 5.33946L23.7197 3.60588Z"
        fill="#0077E6"
      />
      <path
        d="M49.5436 30.28C48.5996 30.28 47.7276 30.128 46.9276 29.824C46.1276 29.52 45.4396 29.096 44.8636 28.552C44.2876 28.024 43.8556 27.4 43.5676 26.68L46.0636 25.648C46.2876 26.256 46.6956 26.76 47.2876 27.16C47.8956 27.56 48.6396 27.76 49.5196 27.76C50.2076 27.76 50.8236 27.624 51.3676 27.352C51.9116 27.096 52.3436 26.712 52.6636 26.2C52.9836 25.704 53.1436 25.104 53.1436 24.4V21.472L53.6236 22.024C53.1756 22.856 52.5516 23.488 51.7516 23.92C50.9676 24.352 50.0796 24.568 49.0876 24.568C47.8876 24.568 46.8076 24.288 45.8476 23.728C44.8876 23.168 44.1276 22.4 43.5676 21.424C43.0236 20.448 42.7516 19.352 42.7516 18.136C42.7516 16.904 43.0236 15.808 43.5676 14.848C44.1276 13.888 44.8796 13.128 45.8236 12.568C46.7676 12.008 47.8476 11.728 49.0636 11.728C50.0556 11.728 50.9356 11.944 51.7036 12.376C52.4876 12.792 53.1276 13.4 53.6236 14.2L53.2636 14.872V12.016H55.8316V24.4C55.8316 25.52 55.5596 26.52 55.0156 27.4C54.4876 28.296 53.7516 29 52.8076 29.512C51.8636 30.024 50.7756 30.28 49.5436 30.28ZM49.3996 22.048C50.1196 22.048 50.7596 21.88 51.3196 21.544C51.8796 21.192 52.3196 20.728 52.6396 20.152C52.9756 19.56 53.1436 18.896 53.1436 18.16C53.1436 17.424 52.9756 16.76 52.6396 16.168C52.3036 15.576 51.8556 15.112 51.2956 14.776C50.7356 14.424 50.1036 14.248 49.3996 14.248C48.6636 14.248 48.0076 14.424 47.4316 14.776C46.8556 15.112 46.3996 15.576 46.0636 16.168C45.7436 16.744 45.5836 17.408 45.5836 18.16C45.5836 18.88 45.7436 19.536 46.0636 20.128C46.3996 20.72 46.8556 21.192 47.4316 21.544C48.0076 21.88 48.6636 22.048 49.3996 22.048ZM59.0061 25V6.832H61.7181V25H59.0061ZM69.5209 25.288C68.5449 25.288 67.6889 25.072 66.9529 24.64C66.2169 24.192 65.6409 23.576 65.2249 22.792C64.8249 21.992 64.6249 21.072 64.6249 20.032V12.016H67.3369V19.792C67.3369 20.384 67.4569 20.904 67.6969 21.352C67.9369 21.8 68.2729 22.152 68.7049 22.408C69.1369 22.648 69.6329 22.768 70.1929 22.768C70.7689 22.768 71.2729 22.64 71.7049 22.384C72.1369 22.128 72.4729 21.768 72.7129 21.304C72.9689 20.84 73.0969 20.296 73.0969 19.672V12.016H75.7849V25H73.2169V22.456L73.5049 22.792C73.2009 23.592 72.6969 24.208 71.9929 24.64C71.2889 25.072 70.4649 25.288 69.5209 25.288ZM85.0474 25.288C83.7514 25.288 82.5994 24.992 81.5914 24.4C80.5994 23.792 79.8234 22.976 79.2634 21.952C78.7034 20.912 78.4234 19.752 78.4234 18.472C78.4234 17.16 78.7034 16 79.2634 14.992C79.8394 13.984 80.6074 13.192 81.5674 12.616C82.5274 12.024 83.6154 11.728 84.8314 11.728C85.8074 11.728 86.6794 11.896 87.4474 12.232C88.2154 12.568 88.8634 13.032 89.3914 13.624C89.9194 14.2 90.3194 14.864 90.5914 15.616C90.8794 16.368 91.0234 17.168 91.0234 18.016C91.0234 18.224 91.0154 18.44 90.9994 18.664C90.9834 18.888 90.9514 19.096 90.9034 19.288H80.5594V17.128H89.3674L88.0714 18.112C88.2314 17.328 88.1754 16.632 87.9034 16.024C87.6474 15.4 87.2474 14.912 86.7034 14.56C86.1754 14.192 85.5514 14.008 84.8314 14.008C84.1114 14.008 83.4714 14.192 82.9114 14.56C82.3514 14.912 81.9194 15.424 81.6154 16.096C81.3114 16.752 81.1914 17.552 81.2554 18.496C81.1754 19.376 81.2954 20.144 81.6154 20.8C81.9514 21.456 82.4154 21.968 83.0074 22.336C83.6154 22.704 84.3034 22.888 85.0714 22.888C85.8554 22.888 86.5194 22.712 87.0634 22.36C87.6234 22.008 88.0634 21.552 88.3834 20.992L90.5914 22.072C90.3354 22.68 89.9354 23.232 89.3914 23.728C88.8634 24.208 88.2234 24.592 87.4714 24.88C86.7354 25.152 85.9274 25.288 85.0474 25.288ZM98.4702 25.288C97.1422 25.288 95.9742 24.96 94.9662 24.304C93.9742 23.648 93.2782 22.768 92.8782 21.664L94.9662 20.68C95.3182 21.416 95.7982 22 96.4062 22.432C97.0302 22.864 97.7182 23.08 98.4702 23.08C99.1102 23.08 99.6302 22.936 100.03 22.648C100.43 22.36 100.63 21.968 100.63 21.472C100.63 21.152 100.542 20.896 100.366 20.704C100.19 20.496 99.9662 20.328 99.6942 20.2C99.4382 20.072 99.1742 19.976 98.9022 19.912L96.8622 19.336C95.7422 19.016 94.9022 18.536 94.3422 17.896C93.7982 17.24 93.5262 16.48 93.5262 15.616C93.5262 14.832 93.7262 14.152 94.1262 13.576C94.5262 12.984 95.0782 12.528 95.7822 12.208C96.4862 11.888 97.2782 11.728 98.1582 11.728C99.3422 11.728 100.398 12.024 101.326 12.616C102.254 13.192 102.91 14 103.294 15.04L101.206 16.024C100.95 15.4 100.542 14.904 99.9822 14.536C99.4382 14.168 98.8222 13.984 98.1342 13.984C97.5422 13.984 97.0702 14.128 96.7182 14.416C96.3662 14.688 96.1902 15.048 96.1902 15.496C96.1902 15.8 96.2702 16.056 96.4302 16.264C96.5902 16.456 96.7982 16.616 97.0542 16.744C97.3102 16.856 97.5742 16.952 97.8462 17.032L99.9582 17.656C101.03 17.96 101.854 18.44 102.43 19.096C103.006 19.736 103.294 20.504 103.294 21.4C103.294 22.168 103.086 22.848 102.67 23.44C102.27 24.016 101.71 24.472 100.99 24.808C100.27 25.128 99.4302 25.288 98.4702 25.288ZM111.567 25.144C110.207 25.144 109.151 24.76 108.399 23.992C107.647 23.224 107.271 22.144 107.271 20.752V14.464H104.991V12.016H105.351C105.959 12.016 106.431 11.84 106.767 11.488C107.103 11.136 107.271 10.656 107.271 10.048V9.04H109.983V12.016H112.935V14.464H109.983V20.632C109.983 21.08 110.055 21.464 110.199 21.784C110.343 22.088 110.575 22.328 110.895 22.504C111.215 22.664 111.631 22.744 112.143 22.744C112.271 22.744 112.415 22.736 112.575 22.72C112.735 22.704 112.887 22.688 113.031 22.672V25C112.807 25.032 112.559 25.064 112.287 25.096C112.015 25.128 111.775 25.144 111.567 25.144ZM119.449 25.288C118.569 25.288 117.793 25.136 117.121 24.832C116.465 24.512 115.953 24.08 115.585 23.536C115.217 22.976 115.033 22.32 115.033 21.568C115.033 20.864 115.185 20.232 115.489 19.672C115.809 19.112 116.297 18.64 116.953 18.256C117.609 17.872 118.433 17.6 119.425 17.44L123.937 16.696V18.832L119.953 19.528C119.233 19.656 118.705 19.888 118.369 20.224C118.033 20.544 117.865 20.96 117.865 21.472C117.865 21.968 118.049 22.376 118.417 22.696C118.801 23 119.289 23.152 119.881 23.152C120.617 23.152 121.257 22.992 121.801 22.672C122.361 22.352 122.793 21.928 123.097 21.4C123.401 20.856 123.553 20.256 123.553 19.6V16.264C123.553 15.624 123.313 15.104 122.833 14.704C122.369 14.288 121.745 14.08 120.961 14.08C120.241 14.08 119.609 14.272 119.065 14.656C118.537 15.024 118.145 15.504 117.889 16.096L115.633 14.968C115.873 14.328 116.265 13.768 116.809 13.288C117.353 12.792 117.985 12.408 118.705 12.136C119.441 11.864 120.217 11.728 121.033 11.728C122.057 11.728 122.961 11.92 123.745 12.304C124.545 12.688 125.161 13.224 125.593 13.912C126.041 14.584 126.265 15.368 126.265 16.264V25H123.673V22.648L124.225 22.72C123.921 23.248 123.529 23.704 123.049 24.088C122.585 24.472 122.049 24.768 121.441 24.976C120.849 25.184 120.185 25.288 119.449 25.288ZM135.604 25.288C134.308 25.288 133.156 24.992 132.148 24.4C131.156 23.792 130.364 22.976 129.772 21.952C129.196 20.928 128.908 19.768 128.908 18.472C128.908 17.192 129.196 16.04 129.772 15.016C130.348 13.992 131.14 13.192 132.148 12.616C133.156 12.024 134.308 11.728 135.604 11.728C136.484 11.728 137.308 11.888 138.076 12.208C138.844 12.512 139.508 12.936 140.068 13.48C140.644 14.024 141.068 14.656 141.34 15.376L138.964 16.48C138.692 15.808 138.252 15.272 137.644 14.872C137.052 14.456 136.372 14.248 135.604 14.248C134.868 14.248 134.204 14.432 133.612 14.8C133.036 15.152 132.58 15.656 132.244 16.312C131.908 16.952 131.74 17.68 131.74 18.496C131.74 19.312 131.908 20.048 132.244 20.704C132.58 21.344 133.036 21.848 133.612 22.216C134.204 22.584 134.868 22.768 135.604 22.768C136.388 22.768 137.068 22.568 137.644 22.168C138.236 21.752 138.676 21.2 138.964 20.512L141.34 21.64C141.084 22.328 140.668 22.952 140.092 23.512C139.532 24.056 138.868 24.488 138.1 24.808C137.332 25.128 136.5 25.288 135.604 25.288ZM143.99 25V6.832H146.702V19L145.646 18.736L152.15 12.016H155.534L150.638 17.224L155.75 25H152.63L148.07 18.112L149.678 17.896L145.838 21.976L146.702 20.176V25H143.99Z"
        fill="white"
      />
    </svg>