<svg width="1344" height="782" viewBox="0 0 1344 782" fill="none" xmlns="http://www.w3.org/2000/svg">
<rect width="1344" height="782" rx="8" fill="black"/>
<path d="M479.83 387L469.83 381.227L469.83 392.774L479.83 387ZM403.991 388C404.544 388 404.991 387.552 404.991 387C404.991 386.448 404.544 386 403.991 386L403.991 388ZM411.975 386C411.422 386 410.975 386.448 410.975 387C410.975 387.552 411.422 388 411.975 388L411.975 386ZM419.958 388C420.51 388 420.958 387.552 420.958 387C420.958 386.448 420.51 386 419.958 386L419.958 388ZM427.94 386C427.388 386 426.94 386.448 426.94 387C426.94 387.552 427.388 388 427.94 388L427.94 386ZM435.923 388C436.476 388 436.924 387.552 436.924 387C436.924 386.448 436.476 386 435.924 386L435.923 388ZM443.907 386C443.354 386 442.907 386.448 442.907 387C442.907 387.552 443.354 388 443.907 388L443.907 386ZM451.89 388C452.442 388 452.89 387.552 452.89 387C452.89 386.448 452.442 386 451.89 386L451.89 388ZM459.873 386C459.32 386 458.873 386.448 458.873 387C458.873 387.552 459.32 388 459.873 388L459.873 386ZM467.856 388C468.408 388 468.856 387.552 468.856 387C468.856 386.448 468.408 386 467.856 386L467.856 388ZM475.839 386C475.286 386 474.839 386.448 474.839 387C474.839 387.552 475.286 388 475.839 388L475.839 386ZM400 388L403.991 388L403.991 386L400 386L400 388ZM411.975 388L419.958 388L419.958 386L411.975 386L411.975 388ZM427.94 388L435.923 388L435.924 386L427.94 386L427.94 388ZM443.907 388L451.89 388L451.89 386L443.907 386L443.907 388ZM459.873 388L467.856 388L467.856 386L459.873 386L459.873 388Z" fill="#C8C8C8"/>
<path d="M959.83 390L949.83 384.227L949.83 395.774L959.83 390ZM883.992 391C884.544 391 884.992 390.552 884.992 390C884.992 389.448 884.544 389 883.992 389L883.992 391ZM891.975 389C891.422 389 890.975 389.448 890.975 390C890.975 390.552 891.422 391 891.975 391L891.975 389ZM899.958 391C900.51 391 900.958 390.552 900.958 390C900.958 389.448 900.51 389 899.958 389L899.958 391ZM907.941 389C907.388 389 906.941 389.448 906.941 390C906.941 390.552 907.388 391 907.941 391L907.941 389ZM915.923 391C916.476 391 916.924 390.552 916.924 390C916.924 389.448 916.476 389 915.924 389L915.923 391ZM923.907 389C923.354 389 922.907 389.448 922.907 390C922.907 390.552 923.354 391 923.907 391L923.907 389ZM931.89 391C932.442 391 932.89 390.552 932.89 390C932.89 389.448 932.442 389 931.89 389L931.89 391ZM939.873 389C939.32 389 938.873 389.448 938.873 390C938.873 390.552 939.32 391 939.873 391L939.873 389ZM947.856 391C948.408 391 948.856 390.552 948.856 390C948.856 389.448 948.408 389 947.856 389L947.856 391ZM955.839 389C955.286 389 954.839 389.448 954.839 390C954.839 390.552 955.286 391 955.839 391L955.839 389ZM880 391L883.992 391L883.992 389L880 389L880 391ZM891.975 391L899.958 391L899.958 389L891.975 389L891.975 391ZM907.941 391L915.923 391L915.924 389L907.941 389L907.941 391ZM923.907 391L931.89 391L931.89 389L923.907 389L923.907 391ZM939.873 391L947.856 391L947.856 389L939.873 389L939.873 391Z" fill="#C8C8C8"/>
<rect x="961" y="81" width="302" height="178" rx="7" fill="#141516"/>
<g clip-path="url(#clip0_13_751)">
<path d="M1019.59 129.781C1019.14 129.469 1018.1 129.351 1017.3 129.508C1017.2 128.726 1016.77 128.043 1016.02 127.437L1015.59 127.125L1015.29 127.574C1014.91 128.16 1014.73 128.98 1014.78 129.762C1014.8 130.035 1014.9 130.523 1015.18 130.953C1014.91 131.109 1014.37 131.304 1013.66 131.304H1000.09L1000.05 131.461C999.922 132.242 999.922 134.683 1001.46 136.558C1002.62 137.984 1004.35 138.706 1006.62 138.706C1011.54 138.706 1015.18 136.343 1016.89 132.066C1017.56 132.086 1019.01 132.066 1019.74 130.601C1019.76 130.562 1019.79 130.484 1019.93 130.191L1020 130.035L1019.59 129.781ZM1010.94 124.273H1008.87V126.226H1010.94V124.273ZM1010.94 126.617H1008.87V128.57H1010.94V126.617V126.617ZM1008.5 126.617H1006.43V128.57H1008.5V126.617V126.617ZM1006.06 126.617H1003.99V128.57H1006.06V126.617V126.617ZM1003.62 128.961H1001.55V130.914H1003.62V128.961L1003.62 128.961ZM1006.06 128.961H1003.99V130.914H1006.06V128.961ZM1008.5 128.961H1006.43V130.914H1008.5V128.961ZM1010.94 128.961H1008.87V130.914H1010.94V128.961ZM1013.38 128.961H1011.31V130.914H1013.38V128.961Z" fill="#2396ED"/>
</g>
<path d="M1029.28 138V125.4H1033.58C1035.06 125.4 1036.27 125.664 1037.22 126.192C1038.18 126.708 1038.88 127.44 1039.34 128.388C1039.81 129.324 1040.04 130.428 1040.04 131.7C1040.04 132.972 1039.81 134.082 1039.34 135.03C1038.88 135.966 1038.18 136.698 1037.22 137.226C1036.27 137.742 1035.06 138 1033.58 138H1029.28ZM1031.58 136.02H1033.47C1034.53 136.02 1035.36 135.852 1035.97 135.516C1036.59 135.168 1037.02 134.676 1037.29 134.04C1037.55 133.392 1037.68 132.612 1037.68 131.7C1037.68 130.8 1037.55 130.026 1037.29 129.378C1037.02 128.73 1036.59 128.232 1035.97 127.884C1035.36 127.536 1034.53 127.362 1033.47 127.362H1031.58V136.02ZM1046.3 138.216C1045.44 138.216 1044.66 138.018 1043.96 137.622C1043.28 137.226 1042.73 136.68 1042.33 135.984C1041.93 135.276 1041.73 134.46 1041.73 133.536C1041.73 132.612 1041.94 131.802 1042.34 131.106C1042.75 130.398 1043.3 129.846 1043.98 129.45C1044.68 129.054 1045.46 128.856 1046.32 128.856C1047.17 128.856 1047.94 129.054 1048.63 129.45C1049.32 129.846 1049.87 130.398 1050.26 131.106C1050.67 131.802 1050.88 132.612 1050.88 133.536C1050.88 134.46 1050.67 135.276 1050.26 135.984C1049.87 136.68 1049.32 137.226 1048.63 137.622C1047.93 138.018 1047.16 138.216 1046.3 138.216ZM1046.3 136.218C1046.9 136.218 1047.43 135.996 1047.87 135.552C1048.31 135.096 1048.54 134.424 1048.54 133.536C1048.54 132.648 1048.31 131.982 1047.87 131.538C1047.43 131.082 1046.91 130.854 1046.32 130.854C1045.71 130.854 1045.18 131.082 1044.74 131.538C1044.31 131.982 1044.09 132.648 1044.09 133.536C1044.09 134.424 1044.31 135.096 1044.74 135.552C1045.18 135.996 1045.7 136.218 1046.3 136.218ZM1057.31 138.216C1056.4 138.216 1055.59 138.018 1054.9 137.622C1054.2 137.226 1053.65 136.674 1053.24 135.966C1052.85 135.258 1052.65 134.448 1052.65 133.536C1052.65 132.624 1052.85 131.814 1053.24 131.106C1053.65 130.398 1054.2 129.846 1054.9 129.45C1055.59 129.054 1056.4 128.856 1057.31 128.856C1058.45 128.856 1059.41 129.156 1060.19 129.756C1060.97 130.344 1061.47 131.16 1061.68 132.204H1059.25C1059.13 131.772 1058.89 131.436 1058.53 131.196C1058.19 130.944 1057.77 130.818 1057.29 130.818C1056.66 130.818 1056.12 131.058 1055.67 131.538C1055.23 132.018 1055.01 132.684 1055.01 133.536C1055.01 134.388 1055.23 135.054 1055.67 135.534C1056.12 136.014 1056.66 136.254 1057.29 136.254C1057.77 136.254 1058.19 136.134 1058.53 135.894C1058.89 135.654 1059.13 135.312 1059.25 134.868H1061.68C1061.47 135.876 1060.97 136.686 1060.19 137.298C1059.41 137.91 1058.45 138.216 1057.31 138.216ZM1063.73 138V125.04H1066.03V132.69L1069.2 129.072H1071.94L1068.28 133.14L1072.53 138H1069.65L1066.03 133.518V138H1063.73ZM1077.56 138.216C1076.66 138.216 1075.86 138.024 1075.17 137.64C1074.47 137.256 1073.92 136.716 1073.53 136.02C1073.13 135.324 1072.93 134.52 1072.93 133.608C1072.93 132.684 1073.13 131.862 1073.51 131.142C1073.91 130.422 1074.45 129.864 1075.13 129.468C1075.83 129.06 1076.64 128.856 1077.58 128.856C1078.45 128.856 1079.23 129.048 1079.9 129.432C1080.57 129.816 1081.09 130.344 1081.47 131.016C1081.85 131.676 1082.04 132.414 1082.04 133.23C1082.04 133.362 1082.04 133.5 1082.02 133.644C1082.02 133.788 1082.02 133.938 1082.01 134.094H1075.22C1075.27 134.79 1075.51 135.336 1075.94 135.732C1076.38 136.128 1076.92 136.326 1077.54 136.326C1078.01 136.326 1078.4 136.224 1078.71 136.02C1079.04 135.804 1079.28 135.528 1079.43 135.192H1081.77C1081.6 135.756 1081.32 136.272 1080.93 136.74C1080.54 137.196 1080.06 137.556 1079.49 137.82C1078.92 138.084 1078.28 138.216 1077.56 138.216ZM1077.58 130.728C1077.01 130.728 1076.52 130.89 1076.08 131.214C1075.65 131.526 1075.38 132.006 1075.26 132.654H1079.7C1079.67 132.066 1079.45 131.598 1079.05 131.25C1078.66 130.902 1078.17 130.728 1077.58 130.728ZM1083.98 138V129.072H1086.03L1086.25 130.746C1086.57 130.17 1087.01 129.714 1087.56 129.378C1088.13 129.03 1088.79 128.856 1089.54 128.856V131.286H1088.89C1088.39 131.286 1087.94 131.364 1087.54 131.52C1087.15 131.676 1086.84 131.946 1086.61 132.33C1086.39 132.714 1086.28 133.248 1086.28 133.932V138H1083.98Z" fill="#D2E0F8"/>
<rect x="1001" y="160" width="222" height="59" rx="11" fill="#9F4CBC" fill-opacity="0.1"/>
<path d="M1067.3 197V181.6H1073C1074.23 181.6 1075.25 181.805 1076.06 182.216C1076.87 182.627 1077.47 183.191 1077.86 183.91C1078.26 184.629 1078.46 185.435 1078.46 186.33C1078.46 187.181 1078.27 187.965 1077.89 188.684C1077.51 189.388 1076.91 189.96 1076.1 190.4C1075.3 190.825 1074.26 191.038 1073 191.038H1070.12V197H1067.3ZM1070.12 188.75H1072.83C1073.81 188.75 1074.51 188.537 1074.94 188.112C1075.38 187.672 1075.6 187.078 1075.6 186.33C1075.6 185.567 1075.38 184.973 1074.94 184.548C1074.51 184.108 1073.81 183.888 1072.83 183.888H1070.12V188.75ZM1085.28 197.264C1084.22 197.264 1083.27 197.022 1082.42 196.538C1081.58 196.054 1080.92 195.387 1080.42 194.536C1079.93 193.671 1079.69 192.673 1079.69 191.544C1079.69 190.415 1079.94 189.425 1080.44 188.574C1080.94 187.709 1081.61 187.034 1082.44 186.55C1083.29 186.066 1084.25 185.824 1085.3 185.824C1086.34 185.824 1087.28 186.066 1088.12 186.55C1088.97 187.034 1089.64 187.709 1090.12 188.574C1090.62 189.425 1090.87 190.415 1090.87 191.544C1090.87 192.673 1090.62 193.671 1090.12 194.536C1089.64 195.387 1088.97 196.054 1088.12 196.538C1087.27 197.022 1086.32 197.264 1085.28 197.264ZM1085.28 194.822C1086.01 194.822 1086.65 194.551 1087.19 194.008C1087.74 193.451 1088.01 192.629 1088.01 191.544C1088.01 190.459 1087.74 189.645 1087.19 189.102C1086.65 188.545 1086.02 188.266 1085.3 188.266C1084.55 188.266 1083.91 188.545 1083.37 189.102C1082.84 189.645 1082.57 190.459 1082.57 191.544C1082.57 192.629 1082.84 193.451 1083.37 194.008C1083.91 194.551 1084.55 194.822 1085.28 194.822ZM1097.9 197.264C1096.93 197.264 1096.08 197.11 1095.34 196.802C1094.61 196.479 1094.02 196.039 1093.58 195.482C1093.14 194.925 1092.88 194.279 1092.79 193.546H1095.63C1095.72 193.971 1095.95 194.338 1096.33 194.646C1096.73 194.939 1097.24 195.086 1097.85 195.086C1098.47 195.086 1098.91 194.961 1099.19 194.712C1099.49 194.463 1099.63 194.177 1099.63 193.854C1099.63 193.385 1099.43 193.069 1099.02 192.908C1098.61 192.732 1098.03 192.563 1097.3 192.402C1096.83 192.299 1096.36 192.175 1095.87 192.028C1095.39 191.881 1094.94 191.698 1094.53 191.478C1094.13 191.243 1093.81 190.95 1093.56 190.598C1093.31 190.231 1093.19 189.784 1093.19 189.256C1093.19 188.288 1093.57 187.474 1094.33 186.814C1095.11 186.154 1096.19 185.824 1097.59 185.824C1098.88 185.824 1099.9 186.125 1100.67 186.726C1101.44 187.327 1101.91 188.156 1102.05 189.212H1099.39C1099.23 188.405 1098.62 188.002 1097.57 188.002C1097.04 188.002 1096.63 188.105 1096.33 188.31C1096.05 188.515 1095.92 188.772 1095.92 189.08C1095.92 189.403 1096.13 189.659 1096.55 189.85C1096.98 190.041 1097.54 190.217 1098.25 190.378C1099.01 190.554 1099.71 190.752 1100.34 190.972C1100.98 191.177 1101.5 191.493 1101.88 191.918C1102.26 192.329 1102.45 192.923 1102.45 193.7C1102.46 194.375 1102.29 194.983 1101.92 195.526C1101.55 196.069 1101.03 196.494 1100.34 196.802C1099.65 197.11 1098.83 197.264 1097.9 197.264ZM1109.46 197C1108.32 197 1107.4 196.721 1106.71 196.164C1106.02 195.607 1105.68 194.617 1105.68 193.194V188.442H1103.81V186.088H1105.68L1106.01 183.162H1108.49V186.088H1111.44V188.442H1108.49V193.216C1108.49 193.744 1108.6 194.111 1108.82 194.316C1109.06 194.507 1109.45 194.602 1110.01 194.602H1111.38V197H1109.46ZM1118.48 193.744C1117.95 193.744 1117.46 193.685 1117.01 193.568L1116.19 194.382C1116.44 194.514 1116.78 194.624 1117.2 194.712C1117.63 194.8 1118.32 194.888 1119.27 194.976C1120.72 195.108 1121.78 195.453 1122.44 196.01C1123.1 196.567 1123.43 197.337 1123.43 198.32C1123.43 198.965 1123.25 199.574 1122.9 200.146C1122.55 200.733 1122.01 201.202 1121.27 201.554C1120.54 201.921 1119.6 202.104 1118.46 202.104C1116.9 202.104 1115.65 201.811 1114.7 201.224C1113.74 200.652 1113.27 199.787 1113.27 198.628C1113.27 197.645 1113.74 196.795 1114.7 196.076C1114.4 195.944 1114.15 195.805 1113.93 195.658C1113.72 195.511 1113.54 195.357 1113.38 195.196V194.69L1115.29 192.666C1114.44 191.918 1114.01 190.957 1114.01 189.784C1114.01 189.051 1114.19 188.383 1114.54 187.782C1114.91 187.181 1115.42 186.704 1116.08 186.352C1116.74 186 1117.54 185.824 1118.48 185.824C1119.1 185.824 1119.67 185.912 1120.2 186.088H1124.33V187.804L1122.46 187.936C1122.76 188.493 1122.9 189.109 1122.9 189.784C1122.9 190.517 1122.73 191.185 1122.37 191.786C1122.02 192.387 1121.51 192.864 1120.83 193.216C1120.17 193.568 1119.39 193.744 1118.48 193.744ZM1118.48 191.588C1119.05 191.588 1119.52 191.434 1119.89 191.126C1120.27 190.818 1120.46 190.378 1120.46 189.806C1120.46 189.234 1120.27 188.794 1119.89 188.486C1119.52 188.178 1119.05 188.024 1118.48 188.024C1117.88 188.024 1117.39 188.178 1117.03 188.486C1116.66 188.794 1116.48 189.234 1116.48 189.806C1116.48 190.378 1116.66 190.818 1117.03 191.126C1117.39 191.434 1117.88 191.588 1118.48 191.588ZM1115.84 198.342C1115.84 198.885 1116.09 199.288 1116.59 199.552C1117.1 199.831 1117.72 199.97 1118.46 199.97C1119.16 199.97 1119.73 199.823 1120.17 199.53C1120.61 199.251 1120.83 198.87 1120.83 198.386C1120.83 197.99 1120.69 197.66 1120.39 197.396C1120.12 197.132 1119.55 196.971 1118.7 196.912C1118.1 196.868 1117.54 196.802 1117.03 196.714C1116.6 196.949 1116.29 197.205 1116.1 197.484C1115.93 197.763 1115.84 198.049 1115.84 198.342ZM1126.39 197V186.088H1128.89L1129.16 188.134C1129.55 187.43 1130.09 186.873 1130.76 186.462C1131.45 186.037 1132.26 185.824 1133.18 185.824V188.794H1132.39C1131.78 188.794 1131.23 188.889 1130.74 189.08C1130.26 189.271 1129.88 189.601 1129.6 190.07C1129.33 190.539 1129.2 191.192 1129.2 192.028V197H1126.39ZM1140.22 197.264C1139.12 197.264 1138.14 197.029 1137.29 196.56C1136.44 196.091 1135.77 195.431 1135.29 194.58C1134.8 193.729 1134.56 192.747 1134.56 191.632C1134.56 190.503 1134.8 189.498 1135.27 188.618C1135.75 187.738 1136.41 187.056 1137.25 186.572C1138.1 186.073 1139.09 185.824 1140.24 185.824C1141.31 185.824 1142.26 186.059 1143.08 186.528C1143.9 186.997 1144.54 187.643 1144.99 188.464C1145.46 189.271 1145.69 190.173 1145.69 191.17C1145.69 191.331 1145.69 191.5 1145.67 191.676C1145.67 191.852 1145.67 192.035 1145.65 192.226H1137.36C1137.42 193.077 1137.71 193.744 1138.24 194.228C1138.78 194.712 1139.43 194.954 1140.19 194.954C1140.77 194.954 1141.24 194.829 1141.62 194.58C1142.02 194.316 1142.31 193.979 1142.5 193.568H1145.36C1145.16 194.257 1144.81 194.888 1144.33 195.46C1143.86 196.017 1143.27 196.457 1142.57 196.78C1141.88 197.103 1141.1 197.264 1140.22 197.264ZM1140.24 188.112C1139.55 188.112 1138.94 188.31 1138.41 188.706C1137.88 189.087 1137.55 189.674 1137.4 190.466H1142.83C1142.79 189.747 1142.53 189.175 1142.04 188.75C1141.56 188.325 1140.96 188.112 1140.24 188.112ZM1152.57 197.264C1151.6 197.264 1150.75 197.11 1150.02 196.802C1149.29 196.479 1148.7 196.039 1148.26 195.482C1147.82 194.925 1147.56 194.279 1147.47 193.546H1150.31C1150.39 193.971 1150.63 194.338 1151.01 194.646C1151.41 194.939 1151.91 195.086 1152.53 195.086C1153.14 195.086 1153.59 194.961 1153.87 194.712C1154.16 194.463 1154.31 194.177 1154.31 193.854C1154.31 193.385 1154.11 193.069 1153.69 192.908C1153.28 192.732 1152.71 192.563 1151.98 192.402C1151.51 192.299 1151.03 192.175 1150.55 192.028C1150.06 191.881 1149.62 191.698 1149.21 191.478C1148.81 191.243 1148.49 190.95 1148.24 190.598C1147.99 190.231 1147.86 189.784 1147.86 189.256C1147.86 188.288 1148.25 187.474 1149.01 186.814C1149.79 186.154 1150.87 185.824 1152.26 185.824C1153.56 185.824 1154.58 186.125 1155.34 186.726C1156.12 187.327 1156.58 188.156 1156.73 189.212H1154.07C1153.91 188.405 1153.3 188.002 1152.24 188.002C1151.71 188.002 1151.3 188.105 1151.01 188.31C1150.73 188.515 1150.59 188.772 1150.59 189.08C1150.59 189.403 1150.81 189.659 1151.23 189.85C1151.66 190.041 1152.22 190.217 1152.92 190.378C1153.69 190.554 1154.38 190.752 1155.01 190.972C1155.66 191.177 1156.17 191.493 1156.55 191.918C1156.94 192.329 1157.13 192.923 1157.13 193.7C1157.14 194.375 1156.97 194.983 1156.6 195.526C1156.23 196.069 1155.7 196.494 1155.01 196.802C1154.33 197.11 1153.51 197.264 1152.57 197.264Z" fill="#9F4CBC"/>
<rect x="1001" y="160" width="222" height="59" rx="11" stroke="#9F4CBC" stroke-width="2"/>
<rect x="961" y="81" width="302" height="178" rx="7" stroke="#5F5872" stroke-width="2"/>
<rect x="481" y="281" width="398" height="211" rx="7" fill="#141516"/>
<path d="M526.087 337.412C526.591 337.412 527 337.003 527 336.499C527 335.995 526.591 335.586 526.087 335.586C525.582 335.586 525.174 335.995 525.174 336.499C525.174 337.003 525.582 337.412 526.087 337.412Z" fill="#D2E0F8"/>
<path d="M529.738 327.276V327.988H522.435V327.014H529.556C529.269 326.567 529.063 326.072 528.947 325.553H522.435V324.579H528.825V324.543C528.824 323.646 529.089 322.769 529.586 322.023H520.913C520.671 322.023 520.439 322.119 520.267 322.29C520.096 322.462 520 322.694 520 322.936V341.5H532.173V328.937C531.2 328.668 530.344 328.083 529.738 327.276ZM526.087 338.323C525.725 338.323 525.372 338.216 525.072 338.015C524.772 337.814 524.538 337.529 524.4 337.196C524.261 336.862 524.225 336.495 524.296 336.141C524.366 335.786 524.54 335.461 524.795 335.206C525.051 334.95 525.376 334.776 525.73 334.706C526.085 334.635 526.452 334.672 526.785 334.81C527.119 334.948 527.404 335.182 527.605 335.482C527.805 335.783 527.913 336.136 527.913 336.497C527.913 336.981 527.72 337.445 527.378 337.788C527.035 338.13 526.571 338.323 526.087 338.323Z" fill="#D2E0F8"/>
<path d="M533.39 327.587C535.071 327.587 536.434 326.225 536.434 324.544C536.434 322.863 535.071 321.5 533.39 321.5C531.71 321.5 530.347 322.863 530.347 324.544C530.347 326.225 531.71 327.587 533.39 327.587Z" fill="#D2E0F8"/>
<path d="M545.658 338V325.4H547.962V330.638H553.614V325.4H555.918V338H553.614V332.51H547.962V338H545.658ZM562.597 338.216C561.733 338.216 560.953 338.018 560.257 337.622C559.573 337.226 559.027 336.68 558.619 335.984C558.223 335.276 558.025 334.46 558.025 333.536C558.025 332.612 558.229 331.802 558.637 331.106C559.045 330.398 559.591 329.846 560.275 329.45C560.971 329.054 561.751 328.856 562.615 328.856C563.467 328.856 564.235 329.054 564.919 329.45C565.615 329.846 566.161 330.398 566.557 331.106C566.965 331.802 567.169 332.612 567.169 333.536C567.169 334.46 566.965 335.276 566.557 335.984C566.161 336.68 565.615 337.226 564.919 337.622C564.223 338.018 563.449 338.216 562.597 338.216ZM562.597 336.218C563.197 336.218 563.719 335.996 564.163 335.552C564.607 335.096 564.829 334.424 564.829 333.536C564.829 332.648 564.607 331.982 564.163 331.538C563.719 331.082 563.203 330.854 562.615 330.854C562.003 330.854 561.475 331.082 561.031 331.538C560.599 331.982 560.383 332.648 560.383 333.536C560.383 334.424 560.599 335.096 561.031 335.552C561.475 335.996 561.997 336.218 562.597 336.218ZM572.919 338.216C572.127 338.216 571.431 338.09 570.831 337.838C570.231 337.574 569.751 337.214 569.391 336.758C569.031 336.302 568.815 335.774 568.743 335.174H571.065C571.137 335.522 571.329 335.822 571.641 336.074C571.965 336.314 572.379 336.434 572.883 336.434C573.387 336.434 573.753 336.332 573.981 336.128C574.221 335.924 574.341 335.69 574.341 335.426C574.341 335.042 574.173 334.784 573.837 334.652C573.501 334.508 573.033 334.37 572.433 334.238C572.049 334.154 571.659 334.052 571.263 333.932C570.867 333.812 570.501 333.662 570.165 333.482C569.841 333.29 569.577 333.05 569.373 332.762C569.169 332.462 569.067 332.096 569.067 331.664C569.067 330.872 569.379 330.206 570.003 329.666C570.639 329.126 571.527 328.856 572.667 328.856C573.723 328.856 574.563 329.102 575.187 329.594C575.823 330.086 576.201 330.764 576.321 331.628H574.143C574.011 330.968 573.513 330.638 572.649 330.638C572.217 330.638 571.881 330.722 571.641 330.89C571.413 331.058 571.299 331.268 571.299 331.52C571.299 331.784 571.473 331.994 571.821 332.15C572.169 332.306 572.631 332.45 573.207 332.582C573.831 332.726 574.401 332.888 574.917 333.068C575.445 333.236 575.865 333.494 576.177 333.842C576.489 334.178 576.645 334.664 576.645 335.3C576.657 335.852 576.513 336.35 576.213 336.794C575.913 337.238 575.481 337.586 574.917 337.838C574.353 338.09 573.687 338.216 572.919 338.216ZM582.382 338C581.446 338 580.696 337.772 580.132 337.316C579.568 336.86 579.286 336.05 579.286 334.886V330.998H577.756V329.072H579.286L579.556 326.678H581.59V329.072H584.002V330.998H581.59V334.904C581.59 335.336 581.68 335.636 581.86 335.804C582.052 335.96 582.376 336.038 582.832 336.038H583.948V338H582.382Z" fill="#D2E0F8"/>
<rect x="521" y="360" width="318" height="92" rx="11" fill="#2A2117"/>
<path d="M613.5 393.998C611.153 393.998 609.25 395.9 609.25 398.248C609.25 400.339 610.76 402.077 612.75 402.432V405.5H608.25C607.007 405.5 606 406.507 606 407.75V409.566C604.01 409.92 602.5 411.659 602.5 413.75C602.5 416.097 604.403 418 606.75 418C609.097 418 611 416.097 611 413.75C611 411.659 609.49 409.92 607.5 409.566V407.75C607.5 407.336 607.836 407 608.25 407H618.75C619.164 407 619.5 407.336 619.5 407.75V409.566C617.51 409.92 616 411.659 616 413.75C616 416.097 617.903 418 620.25 418C622.597 418 624.5 416.097 624.5 413.75C624.5 411.659 622.99 409.92 621 409.566V407.75C621 406.507 619.993 405.5 618.75 405.5H614.25V402.432C616.24 402.077 617.75 400.339 617.75 398.248C617.75 395.9 615.847 393.998 613.5 393.998ZM610.75 398.248C610.75 396.729 611.981 395.498 613.5 395.498C615.019 395.498 616.25 396.729 616.25 398.248C616.25 399.766 615.019 400.998 613.5 400.998C611.981 400.998 610.75 399.766 610.75 398.248ZM604 413.75C604 412.231 605.231 411 606.75 411C608.269 411 609.5 412.231 609.5 413.75C609.5 415.269 608.269 416.5 606.75 416.5C605.231 416.5 604 415.269 604 413.75ZM620.25 411C621.769 411 623 412.231 623 413.75C623 415.269 621.769 416.5 620.25 416.5C618.731 416.5 617.5 415.269 617.5 413.75C617.5 412.231 618.731 411 620.25 411Z" fill="#EF8625"/>
<path d="M644.669 413.764C643.847 413.764 643.129 413.61 642.513 413.302C641.897 412.994 641.398 412.561 641.017 412.004L640.709 413.5H638.201V397.66H641.017V404.15C641.369 403.666 641.831 403.241 642.403 402.874C642.989 402.507 643.745 402.324 644.669 402.324C645.695 402.324 646.612 402.573 647.419 403.072C648.225 403.571 648.863 404.253 649.333 405.118C649.802 405.983 650.037 406.966 650.037 408.066C650.037 409.166 649.802 410.149 649.333 411.014C648.863 411.865 648.225 412.539 647.419 413.038C646.612 413.522 645.695 413.764 644.669 413.764ZM644.075 411.3C644.969 411.3 645.71 410.999 646.297 410.398C646.883 409.797 647.177 409.019 647.177 408.066C647.177 407.113 646.883 406.328 646.297 405.712C645.71 405.096 644.969 404.788 644.075 404.788C643.165 404.788 642.417 405.096 641.831 405.712C641.259 406.313 640.973 407.091 640.973 408.044C640.973 408.997 641.259 409.782 641.831 410.398C642.417 410.999 643.165 411.3 644.075 411.3ZM657.788 413.764C656.732 413.764 655.779 413.522 654.928 413.038C654.092 412.554 653.425 411.887 652.926 411.036C652.442 410.171 652.2 409.173 652.2 408.044C652.2 406.915 652.449 405.925 652.948 405.074C653.447 404.209 654.114 403.534 654.95 403.05C655.801 402.566 656.754 402.324 657.81 402.324C658.851 402.324 659.79 402.566 660.626 403.05C661.477 403.534 662.144 404.209 662.628 405.074C663.127 405.925 663.376 406.915 663.376 408.044C663.376 409.173 663.127 410.171 662.628 411.036C662.144 411.887 661.477 412.554 660.626 413.038C659.775 413.522 658.829 413.764 657.788 413.764ZM657.788 411.322C658.521 411.322 659.159 411.051 659.702 410.508C660.245 409.951 660.516 409.129 660.516 408.044C660.516 406.959 660.245 406.145 659.702 405.602C659.159 405.045 658.529 404.766 657.81 404.766C657.062 404.766 656.417 405.045 655.874 405.602C655.346 406.145 655.082 406.959 655.082 408.044C655.082 409.129 655.346 409.951 655.874 410.508C656.417 411.051 657.055 411.322 657.788 411.322ZM665.894 413.5V397.66H668.71V413.5H665.894ZM676.449 413.5C675.305 413.5 674.389 413.221 673.699 412.664C673.01 412.107 672.665 411.117 672.665 409.694V404.942H670.795V402.588H672.665L672.995 399.662H675.481V402.588H678.429V404.942H675.481V409.716C675.481 410.244 675.591 410.611 675.811 410.816C676.046 411.007 676.442 411.102 676.999 411.102H678.363V413.5H676.449ZM686.155 413.5V398.1H691.853C693.085 398.1 694.105 398.305 694.911 398.716C695.718 399.127 696.319 399.691 696.715 400.41C697.111 401.129 697.309 401.935 697.309 402.83C697.309 403.681 697.119 404.465 696.737 405.184C696.356 405.888 695.762 406.46 694.955 406.9C694.149 407.325 693.115 407.538 691.853 407.538H688.971V413.5H686.155ZM688.971 405.25H691.677C692.66 405.25 693.364 405.037 693.789 404.612C694.229 404.172 694.449 403.578 694.449 402.83C694.449 402.067 694.229 401.473 693.789 401.048C693.364 400.608 692.66 400.388 691.677 400.388H688.971V405.25ZM699.452 413.5V402.588H701.96L702.224 404.634C702.62 403.93 703.156 403.373 703.83 402.962C704.52 402.537 705.326 402.324 706.25 402.324V405.294H705.458C704.842 405.294 704.292 405.389 703.808 405.58C703.324 405.771 702.943 406.101 702.664 406.57C702.4 407.039 702.268 407.692 702.268 408.528V413.5H699.452ZM713.218 413.764C712.162 413.764 711.208 413.522 710.358 413.038C709.522 412.554 708.854 411.887 708.356 411.036C707.872 410.171 707.63 409.173 707.63 408.044C707.63 406.915 707.879 405.925 708.378 405.074C708.876 404.209 709.544 403.534 710.38 403.05C711.23 402.566 712.184 402.324 713.24 402.324C714.281 402.324 715.22 402.566 716.056 403.05C716.906 403.534 717.574 404.209 718.058 405.074C718.556 405.925 718.806 406.915 718.806 408.044C718.806 409.173 718.556 410.171 718.058 411.036C717.574 411.887 716.906 412.554 716.056 413.038C715.205 413.522 714.259 413.764 713.218 413.764ZM713.218 411.322C713.951 411.322 714.589 411.051 715.132 410.508C715.674 409.951 715.946 409.129 715.946 408.044C715.946 406.959 715.674 406.145 715.132 405.602C714.589 405.045 713.958 404.766 713.24 404.766C712.492 404.766 711.846 405.045 711.304 405.602C710.776 406.145 710.512 406.959 710.512 408.044C710.512 409.129 710.776 409.951 711.304 410.508C711.846 411.051 712.484 411.322 713.218 411.322ZM722.886 400.894C722.372 400.894 721.947 400.74 721.61 400.432C721.287 400.124 721.126 399.735 721.126 399.266C721.126 398.797 721.287 398.415 721.61 398.122C721.947 397.814 722.372 397.66 722.886 397.66C723.399 397.66 723.817 397.814 724.14 398.122C724.477 398.415 724.646 398.797 724.646 399.266C724.646 399.735 724.477 400.124 724.14 400.432C723.817 400.74 723.399 400.894 722.886 400.894ZM719.256 418.34V415.942H720.114C720.598 415.942 720.942 415.847 721.148 415.656C721.353 415.465 721.456 415.143 721.456 414.688V402.588H724.272V414.688C724.272 416.008 723.934 416.947 723.26 417.504C722.6 418.061 721.698 418.34 720.554 418.34H719.256ZM732.512 413.764C731.412 413.764 730.437 413.529 729.586 413.06C728.736 412.591 728.068 411.931 727.584 411.08C727.1 410.229 726.858 409.247 726.858 408.132C726.858 407.003 727.093 405.998 727.562 405.118C728.046 404.238 728.706 403.556 729.542 403.072C730.393 402.573 731.39 402.324 732.534 402.324C733.605 402.324 734.551 402.559 735.372 403.028C736.194 403.497 736.832 404.143 737.286 404.964C737.756 405.771 737.99 406.673 737.99 407.67C737.99 407.831 737.983 408 737.968 408.176C737.968 408.352 737.961 408.535 737.946 408.726H729.652C729.711 409.577 730.004 410.244 730.532 410.728C731.075 411.212 731.728 411.454 732.49 411.454C733.062 411.454 733.539 411.329 733.92 411.08C734.316 410.816 734.61 410.479 734.8 410.068H737.66C737.455 410.757 737.11 411.388 736.626 411.96C736.157 412.517 735.57 412.957 734.866 413.28C734.177 413.603 733.392 413.764 732.512 413.764ZM732.534 404.612C731.845 404.612 731.236 404.81 730.708 405.206C730.18 405.587 729.843 406.174 729.696 406.966H735.13C735.086 406.247 734.822 405.675 734.338 405.25C733.854 404.825 733.253 404.612 732.534 404.612ZM745.705 413.764C744.59 413.764 743.607 413.522 742.757 413.038C741.906 412.554 741.231 411.879 740.733 411.014C740.249 410.149 740.007 409.159 740.007 408.044C740.007 406.929 740.249 405.939 740.733 405.074C741.231 404.209 741.906 403.534 742.757 403.05C743.607 402.566 744.59 402.324 745.705 402.324C747.098 402.324 748.271 402.691 749.225 403.424C750.178 404.143 750.787 405.14 751.051 406.416H748.081C747.934 405.888 747.641 405.477 747.201 405.184C746.775 404.876 746.269 404.722 745.683 404.722C744.905 404.722 744.245 405.015 743.703 405.602C743.16 406.189 742.889 407.003 742.889 408.044C742.889 409.085 743.16 409.899 743.703 410.486C744.245 411.073 744.905 411.366 745.683 411.366C746.269 411.366 746.775 411.219 747.201 410.926C747.641 410.633 747.934 410.215 748.081 409.672H751.051C750.787 410.904 750.178 411.894 749.225 412.642C748.271 413.39 747.098 413.764 745.705 413.764ZM758.262 413.5C757.118 413.5 756.201 413.221 755.512 412.664C754.822 412.107 754.478 411.117 754.478 409.694V404.942H752.608V402.588H754.478L754.808 399.662H757.294V402.588H760.242V404.942H757.294V409.716C757.294 410.244 757.404 410.611 757.624 410.816C757.858 411.007 758.254 411.102 758.812 411.102H760.176V413.5H758.262Z" fill="#EF8625"/>
<rect x="521" y="360" width="318" height="92" rx="11" stroke="#EF8625" stroke-width="2"/>
<rect x="481" y="281" width="398" height="211" rx="7" stroke="#5F5872" stroke-width="2"/>
<rect x="961" y="301" width="302" height="178" rx="7" fill="#141516"/>
<path d="M1014.04 360.698C1012.95 361.753 1011.76 361.586 1010.62 361.086C1009.41 360.575 1008.3 360.553 1007.02 361.086C1005.42 361.775 1004.57 361.575 1003.62 360.698C998.197 355.109 998.997 346.599 1005.15 346.288C1006.65 346.366 1007.7 347.11 1008.57 347.177C1009.88 346.91 1011.14 346.144 1012.54 346.244C1014.22 346.377 1015.48 347.044 1016.32 348.244C1012.85 350.321 1013.67 354.887 1016.85 356.165C1016.22 357.831 1015.39 359.487 1014.03 360.709L1014.04 360.698ZM1008.46 346.222C1008.3 343.744 1010.31 341.7 1012.62 341.5C1012.94 344.366 1010.02 346.499 1008.46 346.222Z" fill="#D2E0F8"/>
<path d="M1026.39 358V345.4H1028.69V350.638H1034.34V345.4H1036.65V358H1034.34V352.51H1028.69V358H1026.39ZM1043.32 358.216C1042.46 358.216 1041.68 358.018 1040.98 357.622C1040.3 357.226 1039.75 356.68 1039.35 355.984C1038.95 355.276 1038.75 354.46 1038.75 353.536C1038.75 352.612 1038.96 351.802 1039.36 351.106C1039.77 350.398 1040.32 349.846 1041 349.45C1041.7 349.054 1042.48 348.856 1043.34 348.856C1044.19 348.856 1044.96 349.054 1045.65 349.45C1046.34 349.846 1046.89 350.398 1047.28 351.106C1047.69 351.802 1047.9 352.612 1047.9 353.536C1047.9 354.46 1047.69 355.276 1047.28 355.984C1046.89 356.68 1046.34 357.226 1045.65 357.622C1044.95 358.018 1044.18 358.216 1043.32 358.216ZM1043.32 356.218C1043.92 356.218 1044.45 355.996 1044.89 355.552C1045.33 355.096 1045.56 354.424 1045.56 353.536C1045.56 352.648 1045.33 351.982 1044.89 351.538C1044.45 351.082 1043.93 350.854 1043.34 350.854C1042.73 350.854 1042.2 351.082 1041.76 351.538C1041.33 351.982 1041.11 352.648 1041.11 353.536C1041.11 354.424 1041.33 355.096 1041.76 355.552C1042.2 355.996 1042.72 356.218 1043.32 356.218ZM1053.65 358.216C1052.85 358.216 1052.16 358.09 1051.56 357.838C1050.96 357.574 1050.48 357.214 1050.12 356.758C1049.76 356.302 1049.54 355.774 1049.47 355.174H1051.79C1051.86 355.522 1052.06 355.822 1052.37 356.074C1052.69 356.314 1053.11 356.434 1053.61 356.434C1054.11 356.434 1054.48 356.332 1054.71 356.128C1054.95 355.924 1055.07 355.69 1055.07 355.426C1055.07 355.042 1054.9 354.784 1054.56 354.652C1054.23 354.508 1053.76 354.37 1053.16 354.238C1052.78 354.154 1052.39 354.052 1051.99 353.932C1051.59 353.812 1051.23 353.662 1050.89 353.482C1050.57 353.29 1050.3 353.05 1050.1 352.762C1049.9 352.462 1049.79 352.096 1049.79 351.664C1049.79 350.872 1050.11 350.206 1050.73 349.666C1051.37 349.126 1052.25 348.856 1053.39 348.856C1054.45 348.856 1055.29 349.102 1055.91 349.594C1056.55 350.086 1056.93 350.764 1057.05 351.628H1054.87C1054.74 350.968 1054.24 350.638 1053.38 350.638C1052.94 350.638 1052.61 350.722 1052.37 350.89C1052.14 351.058 1052.03 351.268 1052.03 351.52C1052.03 351.784 1052.2 351.994 1052.55 352.15C1052.9 352.306 1053.36 352.45 1053.93 352.582C1054.56 352.726 1055.13 352.888 1055.64 353.068C1056.17 353.236 1056.59 353.494 1056.9 353.842C1057.22 354.178 1057.37 354.664 1057.37 355.3C1057.38 355.852 1057.24 356.35 1056.94 356.794C1056.64 357.238 1056.21 357.586 1055.64 357.838C1055.08 358.09 1054.41 358.216 1053.65 358.216ZM1063.11 358C1062.17 358 1061.42 357.772 1060.86 357.316C1060.3 356.86 1060.01 356.05 1060.01 354.886V350.998H1058.48V349.072H1060.01L1060.28 346.678H1062.32V349.072H1064.73V350.998H1062.32V354.904C1062.32 355.336 1062.41 355.636 1062.59 355.804C1062.78 355.96 1063.1 356.038 1063.56 356.038H1064.68V358H1063.11Z" fill="#D2E0F8"/>
<rect x="1001" y="380" width="222" height="59" rx="11" fill="#9F4CBC" fill-opacity="0.1"/>
<path d="M1046.13 417V401.6H1051.79C1053.02 401.6 1054.03 401.813 1054.82 402.238C1055.63 402.649 1056.23 403.213 1056.63 403.932C1057.02 404.636 1057.22 405.421 1057.22 406.286C1057.22 407.225 1056.97 408.083 1056.47 408.86C1055.99 409.637 1055.23 410.202 1054.18 410.554L1057.37 417H1054.14L1051.28 410.928H1048.95V417H1046.13ZM1048.95 408.86H1051.61C1052.55 408.86 1053.24 408.633 1053.68 408.178C1054.12 407.723 1054.34 407.122 1054.34 406.374C1054.34 405.641 1054.12 405.054 1053.68 404.614C1053.25 404.174 1052.56 403.954 1051.59 403.954H1048.95V408.86ZM1064.41 417.264C1063.31 417.264 1062.33 417.029 1061.48 416.56C1060.63 416.091 1059.96 415.431 1059.48 414.58C1059 413.729 1058.75 412.747 1058.75 411.632C1058.75 410.503 1058.99 409.498 1059.46 408.618C1059.94 407.738 1060.6 407.056 1061.44 406.572C1062.29 406.073 1063.29 405.824 1064.43 405.824C1065.5 405.824 1066.45 406.059 1067.27 406.528C1068.09 406.997 1068.73 407.643 1069.18 408.464C1069.65 409.271 1069.89 410.173 1069.89 411.17C1069.89 411.331 1069.88 411.5 1069.86 411.676C1069.86 411.852 1069.86 412.035 1069.84 412.226H1061.55C1061.61 413.077 1061.9 413.744 1062.43 414.228C1062.97 414.712 1063.62 414.954 1064.39 414.954C1064.96 414.954 1065.44 414.829 1065.82 414.58C1066.21 414.316 1066.51 413.979 1066.7 413.568H1069.56C1069.35 414.257 1069.01 414.888 1068.52 415.46C1068.05 416.017 1067.47 416.457 1066.76 416.78C1066.07 417.103 1065.29 417.264 1064.41 417.264ZM1064.43 408.112C1063.74 408.112 1063.13 408.31 1062.6 408.706C1062.08 409.087 1061.74 409.674 1061.59 410.466H1067.03C1066.98 409.747 1066.72 409.175 1066.23 408.75C1065.75 408.325 1065.15 408.112 1064.43 408.112ZM1076.02 417.264C1075.08 417.264 1074.31 417.117 1073.71 416.824C1073.11 416.516 1072.66 416.113 1072.37 415.614C1072.07 415.115 1071.93 414.565 1071.93 413.964C1071.93 412.952 1072.32 412.131 1073.11 411.5C1073.91 410.869 1075.09 410.554 1076.68 410.554H1079.45V410.29C1079.45 409.542 1079.24 408.992 1078.81 408.64C1078.39 408.288 1077.86 408.112 1077.23 408.112C1076.66 408.112 1076.16 408.251 1075.73 408.53C1075.31 408.794 1075.04 409.19 1074.94 409.718H1072.19C1072.26 408.926 1072.53 408.237 1072.98 407.65C1073.45 407.063 1074.05 406.616 1074.79 406.308C1075.52 405.985 1076.34 405.824 1077.25 405.824C1078.8 405.824 1080.03 406.213 1080.92 406.99C1081.82 407.767 1082.27 408.867 1082.27 410.29V417H1079.87L1079.6 415.24C1079.28 415.827 1078.83 416.311 1078.24 416.692C1077.67 417.073 1076.93 417.264 1076.02 417.264ZM1076.66 415.064C1077.46 415.064 1078.09 414.8 1078.53 414.272C1078.98 413.744 1079.27 413.091 1079.38 412.314H1076.99C1076.24 412.314 1075.7 412.453 1075.38 412.732C1075.06 412.996 1074.9 413.326 1074.9 413.722C1074.9 414.147 1075.06 414.477 1075.38 414.712C1075.7 414.947 1076.13 415.064 1076.66 415.064ZM1090.3 417.264C1089.18 417.264 1088.2 417.022 1087.35 416.538C1086.5 416.054 1085.83 415.379 1085.33 414.514C1084.84 413.649 1084.6 412.659 1084.6 411.544C1084.6 410.429 1084.84 409.439 1085.33 408.574C1085.83 407.709 1086.5 407.034 1087.35 406.55C1088.2 406.066 1089.18 405.824 1090.3 405.824C1091.69 405.824 1092.87 406.191 1093.82 406.924C1094.77 407.643 1095.38 408.64 1095.64 409.916H1092.67C1092.53 409.388 1092.23 408.977 1091.79 408.684C1091.37 408.376 1090.86 408.222 1090.28 408.222C1089.5 408.222 1088.84 408.515 1088.3 409.102C1087.75 409.689 1087.48 410.503 1087.48 411.544C1087.48 412.585 1087.75 413.399 1088.3 413.986C1088.84 414.573 1089.5 414.866 1090.28 414.866C1090.86 414.866 1091.37 414.719 1091.79 414.426C1092.23 414.133 1092.53 413.715 1092.67 413.172H1095.64C1095.38 414.404 1094.77 415.394 1093.82 416.142C1092.87 416.89 1091.69 417.264 1090.3 417.264ZM1102.86 417C1101.71 417 1100.79 416.721 1100.11 416.164C1099.42 415.607 1099.07 414.617 1099.07 413.194V408.442H1097.2V406.088H1099.07L1099.4 403.162H1101.89V406.088H1104.84V408.442H1101.89V413.216C1101.89 413.744 1102 414.111 1102.22 414.316C1102.45 414.507 1102.85 414.602 1103.41 414.602H1104.77V417H1102.86ZM1112.56 417V401.6H1115.38L1122.62 412.446V401.6H1125.43V417H1122.62L1115.38 406.176V417H1112.56ZM1132.11 417.264C1131.17 417.264 1130.4 417.117 1129.8 416.824C1129.2 416.516 1128.75 416.113 1128.46 415.614C1128.17 415.115 1128.02 414.565 1128.02 413.964C1128.02 412.952 1128.42 412.131 1129.21 411.5C1130 410.869 1131.19 410.554 1132.77 410.554H1135.54V410.29C1135.54 409.542 1135.33 408.992 1134.91 408.64C1134.48 408.288 1133.95 408.112 1133.32 408.112C1132.75 408.112 1132.25 408.251 1131.83 408.53C1131.4 408.794 1131.14 409.19 1131.03 409.718H1128.28C1128.36 408.926 1128.62 408.237 1129.08 407.65C1129.55 407.063 1130.15 406.616 1130.88 406.308C1131.61 405.985 1132.44 405.824 1133.34 405.824C1134.9 405.824 1136.12 406.213 1137.02 406.99C1137.91 407.767 1138.36 408.867 1138.36 410.29V417H1135.96L1135.7 415.24C1135.38 415.827 1134.92 416.311 1134.33 416.692C1133.76 417.073 1133.02 417.264 1132.11 417.264ZM1132.75 415.064C1133.56 415.064 1134.18 414.8 1134.62 414.272C1135.08 413.744 1135.36 413.091 1135.48 412.314H1133.08C1132.33 412.314 1131.8 412.453 1131.47 412.732C1131.15 412.996 1130.99 413.326 1130.99 413.722C1130.99 414.147 1131.15 414.477 1131.47 414.712C1131.8 414.947 1132.22 415.064 1132.75 415.064ZM1145.76 417C1144.62 417 1143.7 416.721 1143.01 416.164C1142.32 415.607 1141.98 414.617 1141.98 413.194V408.442H1140.11V406.088H1141.98L1142.31 403.162H1144.79V406.088H1147.74V408.442H1144.79V413.216C1144.79 413.744 1144.9 414.111 1145.12 414.316C1145.36 414.507 1145.75 414.602 1146.31 414.602H1147.67V417H1145.76ZM1151.68 404.394C1151.16 404.394 1150.74 404.24 1150.4 403.932C1150.08 403.624 1149.92 403.235 1149.92 402.766C1149.92 402.297 1150.08 401.915 1150.4 401.622C1150.74 401.314 1151.16 401.16 1151.68 401.16C1152.19 401.16 1152.61 401.314 1152.93 401.622C1153.27 401.915 1153.44 402.297 1153.44 402.766C1153.44 403.235 1153.27 403.624 1152.93 403.932C1152.61 404.24 1152.19 404.394 1151.68 404.394ZM1150.27 417V406.088H1153.08V417H1150.27ZM1158.97 417L1154.97 406.088H1157.91L1160.69 414.338L1163.46 406.088H1166.41L1162.38 417H1158.97ZM1172.95 417.264C1171.85 417.264 1170.87 417.029 1170.02 416.56C1169.17 416.091 1168.5 415.431 1168.02 414.58C1167.54 413.729 1167.29 412.747 1167.29 411.632C1167.29 410.503 1167.53 409.498 1168 408.618C1168.48 407.738 1169.14 407.056 1169.98 406.572C1170.83 406.073 1171.83 405.824 1172.97 405.824C1174.04 405.824 1174.99 406.059 1175.81 406.528C1176.63 406.997 1177.27 407.643 1177.72 408.464C1178.19 409.271 1178.43 410.173 1178.43 411.17C1178.43 411.331 1178.42 411.5 1178.4 411.676C1178.4 411.852 1178.4 412.035 1178.38 412.226H1170.09C1170.15 413.077 1170.44 413.744 1170.97 414.228C1171.51 414.712 1172.16 414.954 1172.93 414.954C1173.5 414.954 1173.97 414.829 1174.36 414.58C1174.75 414.316 1175.05 413.979 1175.24 413.568H1178.1C1177.89 414.257 1177.55 414.888 1177.06 415.46C1176.59 416.017 1176.01 416.457 1175.3 416.78C1174.61 417.103 1173.83 417.264 1172.95 417.264ZM1172.97 408.112C1172.28 408.112 1171.67 408.31 1171.14 408.706C1170.62 409.087 1170.28 409.674 1170.13 410.466H1175.57C1175.52 409.747 1175.26 409.175 1174.77 408.75C1174.29 408.325 1173.69 408.112 1172.97 408.112Z" fill="#9F4CBC"/>
<rect x="1001" y="380" width="222" height="59" rx="11" stroke="#9F4CBC" stroke-width="2"/>
<rect x="961" y="301" width="302" height="178" rx="7" stroke="#5F5872" stroke-width="2"/>
<rect x="961" y="523" width="302" height="178" rx="7" fill="#141516"/>
<path d="M1006.09 579.412C1006.59 579.412 1007 579.003 1007 578.499C1007 577.995 1006.59 577.586 1006.09 577.586C1005.58 577.586 1005.17 577.995 1005.17 578.499C1005.17 579.003 1005.58 579.412 1006.09 579.412Z" fill="#D2E0F8"/>
<path d="M1009.74 569.276V569.988H1002.43V569.014H1009.56C1009.27 568.567 1009.06 568.072 1008.95 567.553H1002.43V566.579H1008.83V566.543C1008.82 565.646 1009.09 564.769 1009.59 564.023H1000.91C1000.67 564.023 1000.44 564.119 1000.27 564.29C1000.1 564.462 1000 564.694 1000 564.936V583.5H1012.17V570.937C1011.2 570.668 1010.34 570.083 1009.74 569.276ZM1006.09 580.323C1005.73 580.323 1005.37 580.216 1005.07 580.015C1004.77 579.814 1004.54 579.529 1004.4 579.196C1004.26 578.862 1004.23 578.495 1004.3 578.141C1004.37 577.786 1004.54 577.461 1004.8 577.206C1005.05 576.95 1005.38 576.776 1005.73 576.706C1006.08 576.635 1006.45 576.672 1006.79 576.81C1007.12 576.948 1007.4 577.182 1007.6 577.482C1007.81 577.783 1007.91 578.136 1007.91 578.497C1007.91 578.981 1007.72 579.445 1007.38 579.788C1007.04 580.13 1006.57 580.323 1006.09 580.323Z" fill="#D2E0F8"/>
<path d="M1013.39 569.587C1015.07 569.587 1016.43 568.225 1016.43 566.544C1016.43 564.863 1015.07 563.5 1013.39 563.5C1011.71 563.5 1010.35 564.863 1010.35 566.544C1010.35 568.225 1011.71 569.587 1013.39 569.587Z" fill="#D2E0F8"/>
<path d="M1025.97 580V567.4H1028.27V572.638H1033.93V567.4H1036.23V580H1033.93V574.51H1028.27V580H1025.97ZM1042.91 580.216C1042.04 580.216 1041.26 580.018 1040.57 579.622C1039.88 579.226 1039.34 578.68 1038.93 577.984C1038.53 577.276 1038.34 576.46 1038.34 575.536C1038.34 574.612 1038.54 573.802 1038.95 573.106C1039.36 572.398 1039.9 571.846 1040.59 571.45C1041.28 571.054 1042.06 570.856 1042.93 570.856C1043.78 570.856 1044.55 571.054 1045.23 571.45C1045.93 571.846 1046.47 572.398 1046.87 573.106C1047.28 573.802 1047.48 574.612 1047.48 575.536C1047.48 576.46 1047.28 577.276 1046.87 577.984C1046.47 578.68 1045.93 579.226 1045.23 579.622C1044.53 580.018 1043.76 580.216 1042.91 580.216ZM1042.91 578.218C1043.51 578.218 1044.03 577.996 1044.47 577.552C1044.92 577.096 1045.14 576.424 1045.14 575.536C1045.14 574.648 1044.92 573.982 1044.47 573.538C1044.03 573.082 1043.51 572.854 1042.93 572.854C1042.31 572.854 1041.79 573.082 1041.34 573.538C1040.91 573.982 1040.69 574.648 1040.69 575.536C1040.69 576.424 1040.91 577.096 1041.34 577.552C1041.79 577.996 1042.31 578.218 1042.91 578.218ZM1053.23 580.216C1052.44 580.216 1051.74 580.09 1051.14 579.838C1050.54 579.574 1050.06 579.214 1049.7 578.758C1049.34 578.302 1049.13 577.774 1049.05 577.174H1051.38C1051.45 577.522 1051.64 577.822 1051.95 578.074C1052.28 578.314 1052.69 578.434 1053.19 578.434C1053.7 578.434 1054.06 578.332 1054.29 578.128C1054.53 577.924 1054.65 577.69 1054.65 577.426C1054.65 577.042 1054.48 576.784 1054.15 576.652C1053.81 576.508 1053.34 576.37 1052.74 576.238C1052.36 576.154 1051.97 576.052 1051.57 575.932C1051.18 575.812 1050.81 575.662 1050.48 575.482C1050.15 575.29 1049.89 575.05 1049.68 574.762C1049.48 574.462 1049.38 574.096 1049.38 573.664C1049.38 572.872 1049.69 572.206 1050.31 571.666C1050.95 571.126 1051.84 570.856 1052.98 570.856C1054.03 570.856 1054.87 571.102 1055.5 571.594C1056.13 572.086 1056.51 572.764 1056.63 573.628H1054.45C1054.32 572.968 1053.82 572.638 1052.96 572.638C1052.53 572.638 1052.19 572.722 1051.95 572.89C1051.72 573.058 1051.61 573.268 1051.61 573.52C1051.61 573.784 1051.78 573.994 1052.13 574.15C1052.48 574.306 1052.94 574.45 1053.52 574.582C1054.14 574.726 1054.71 574.888 1055.23 575.068C1055.76 575.236 1056.18 575.494 1056.49 575.842C1056.8 576.178 1056.96 576.664 1056.96 577.3C1056.97 577.852 1056.82 578.35 1056.52 578.794C1056.22 579.238 1055.79 579.586 1055.23 579.838C1054.66 580.09 1054 580.216 1053.23 580.216ZM1062.69 580C1061.76 580 1061.01 579.772 1060.44 579.316C1059.88 578.86 1059.6 578.05 1059.6 576.886V572.998H1058.07V571.072H1059.6L1059.87 568.678H1061.9V571.072H1064.31V572.998H1061.9V576.904C1061.9 577.336 1061.99 577.636 1062.17 577.804C1062.36 577.96 1062.69 578.038 1063.14 578.038H1064.26V580H1062.69Z" fill="#D2E0F8"/>
<rect x="1001" y="602" width="222" height="59" rx="11" fill="#9F4CBC" fill-opacity="0.1"/>
<path d="M1076.16 639V623.6H1078.97L1086.21 634.446V623.6H1089.03V639H1086.21L1078.97 628.176V639H1076.16ZM1097.25 639.264C1096.15 639.264 1095.17 639.029 1094.32 638.56C1093.47 638.091 1092.8 637.431 1092.32 636.58C1091.84 635.729 1091.59 634.747 1091.59 633.632C1091.59 632.503 1091.83 631.498 1092.3 630.618C1092.78 629.738 1093.44 629.056 1094.28 628.572C1095.13 628.073 1096.13 627.824 1097.27 627.824C1098.34 627.824 1099.29 628.059 1100.11 628.528C1100.93 628.997 1101.57 629.643 1102.02 630.464C1102.49 631.271 1102.73 632.173 1102.73 633.17C1102.73 633.331 1102.72 633.5 1102.7 633.676C1102.7 633.852 1102.7 634.035 1102.68 634.226H1094.39C1094.45 635.077 1094.74 635.744 1095.27 636.228C1095.81 636.712 1096.46 636.954 1097.23 636.954C1097.8 636.954 1098.27 636.829 1098.66 636.58C1099.05 636.316 1099.34 635.979 1099.54 635.568H1102.4C1102.19 636.257 1101.85 636.888 1101.36 637.46C1100.89 638.017 1100.31 638.457 1099.6 638.78C1098.91 639.103 1098.13 639.264 1097.25 639.264ZM1097.27 630.112C1096.58 630.112 1095.97 630.31 1095.44 630.706C1094.92 631.087 1094.58 631.674 1094.43 632.466H1099.87C1099.82 631.747 1099.56 631.175 1099.07 630.75C1098.59 630.325 1097.99 630.112 1097.27 630.112ZM1103.31 639L1107.27 633.544L1103.31 628.088H1106.32L1109.09 631.96L1111.84 628.088H1114.88L1110.9 633.544L1114.88 639H1111.84L1109.09 635.128L1106.32 639H1103.31ZM1121.54 639C1120.39 639 1119.48 638.721 1118.79 638.164C1118.1 637.607 1117.75 636.617 1117.75 635.194V630.442H1115.88V628.088H1117.75L1118.08 625.162H1120.57V628.088H1123.52V630.442H1120.57V635.216C1120.57 635.744 1120.68 636.111 1120.9 636.316C1121.13 636.507 1121.53 636.602 1122.09 636.602H1123.45V639H1121.54ZM1130.03 639.264C1128.53 639.264 1127.33 638.846 1126.42 638.01C1125.52 637.159 1125.08 635.957 1125.08 634.402H1127.89C1127.91 635.121 1128.08 635.693 1128.4 636.118C1128.72 636.543 1129.24 636.756 1129.96 636.756C1130.63 636.756 1131.13 636.558 1131.43 636.162C1131.74 635.751 1131.9 635.216 1131.9 634.556V623.6H1134.71V634.556C1134.71 636.067 1134.29 637.233 1133.44 638.054C1132.6 638.861 1131.46 639.264 1130.03 639.264ZM1142.97 639.264C1141.84 639.264 1140.84 639.073 1139.97 638.692C1139.11 638.296 1138.43 637.739 1137.93 637.02C1137.43 636.287 1137.17 635.399 1137.16 634.358H1140.13C1140.16 635.077 1140.41 635.685 1140.9 636.184C1141.4 636.668 1142.08 636.91 1142.94 636.91C1143.69 636.91 1144.29 636.734 1144.73 636.382C1145.17 636.015 1145.39 635.531 1145.39 634.93C1145.39 634.299 1145.19 633.808 1144.79 633.456C1144.41 633.104 1143.9 632.818 1143.25 632.598C1142.61 632.378 1141.92 632.143 1141.18 631.894C1140 631.483 1139.09 630.955 1138.46 630.31C1137.84 629.665 1137.53 628.807 1137.53 627.736C1137.52 626.827 1137.73 626.049 1138.17 625.404C1138.63 624.744 1139.24 624.238 1140.02 623.886C1140.8 623.519 1141.69 623.336 1142.7 623.336C1143.73 623.336 1144.63 623.519 1145.41 623.886C1146.2 624.253 1146.82 624.766 1147.26 625.426C1147.71 626.086 1147.95 626.871 1147.98 627.78H1144.97C1144.95 627.237 1144.74 626.761 1144.33 626.35C1143.93 625.925 1143.38 625.712 1142.66 625.712C1142.04 625.697 1141.52 625.851 1141.1 626.174C1140.69 626.482 1140.48 626.937 1140.48 627.538C1140.48 628.051 1140.64 628.462 1140.96 628.77C1141.29 629.063 1141.73 629.313 1142.28 629.518C1142.84 629.723 1143.48 629.943 1144.2 630.178C1144.96 630.442 1145.66 630.75 1146.29 631.102C1146.92 631.454 1147.43 631.923 1147.81 632.51C1148.19 633.082 1148.38 633.823 1148.38 634.732C1148.38 635.539 1148.17 636.287 1147.76 636.976C1147.35 637.665 1146.74 638.223 1145.94 638.648C1145.13 639.059 1144.14 639.264 1142.97 639.264Z" fill="#9F4CBC"/>
<rect x="1001" y="602" width="222" height="59" rx="11" stroke="#9F4CBC" stroke-width="2"/>
<rect x="961" y="523" width="302" height="178" rx="7" stroke="#5F5872" stroke-width="2"/>
<rect x="81" y="334" width="318" height="108" rx="11" fill="#FFDB1C" fill-opacity="0.1"/>
<rect x="179.5" y="373" width="30" height="30" rx="4.42243" fill="#FFDB1C"/>
<rect x="179.843" y="373.343" width="29.3142" height="29.3142" rx="4.07952" fill="#FFDB1C" stroke="#FFDB1C" stroke-width="0.685815"/>
<path d="M192.447 376.723H197.052L193.052 386.432L192.857 386.905H193.369H196.301L195.146 390.895H191.571H189.399L192.447 376.723Z" stroke="black" stroke-width="0.685815"/>
<path d="M191.682 389.237L194.519 377.733H199.803L195.693 386.29H199.803L192.358 399.727L194.389 389.237H191.682Z" fill="black"/>
<path d="M225.884 395.764C225.063 395.764 224.344 395.61 223.728 395.302C223.112 394.994 222.614 394.561 222.232 394.004L221.924 395.5H219.416V379.66H222.232V386.15C222.584 385.666 223.046 385.241 223.618 384.874C224.205 384.507 224.96 384.324 225.884 384.324C226.911 384.324 227.828 384.573 228.634 385.072C229.441 385.571 230.079 386.253 230.548 387.118C231.018 387.983 231.252 388.966 231.252 390.066C231.252 391.166 231.018 392.149 230.548 393.014C230.079 393.865 229.441 394.539 228.634 395.038C227.828 395.522 226.911 395.764 225.884 395.764ZM225.29 393.3C226.185 393.3 226.926 392.999 227.512 392.398C228.099 391.797 228.392 391.019 228.392 390.066C228.392 389.113 228.099 388.328 227.512 387.712C226.926 387.096 226.185 386.788 225.29 386.788C224.381 386.788 223.633 387.096 223.046 387.712C222.474 388.313 222.188 389.091 222.188 390.044C222.188 390.997 222.474 391.782 223.046 392.398C223.633 392.999 224.381 393.3 225.29 393.3ZM239.004 395.764C237.948 395.764 236.995 395.522 236.144 395.038C235.308 394.554 234.641 393.887 234.142 393.036C233.658 392.171 233.416 391.173 233.416 390.044C233.416 388.915 233.665 387.925 234.164 387.074C234.663 386.209 235.33 385.534 236.166 385.05C237.017 384.566 237.97 384.324 239.026 384.324C240.067 384.324 241.006 384.566 241.842 385.05C242.693 385.534 243.36 386.209 243.844 387.074C244.343 387.925 244.592 388.915 244.592 390.044C244.592 391.173 244.343 392.171 243.844 393.036C243.36 393.887 242.693 394.554 241.842 395.038C240.991 395.522 240.045 395.764 239.004 395.764ZM239.004 393.322C239.737 393.322 240.375 393.051 240.918 392.508C241.461 391.951 241.732 391.129 241.732 390.044C241.732 388.959 241.461 388.145 240.918 387.602C240.375 387.045 239.745 386.766 239.026 386.766C238.278 386.766 237.633 387.045 237.09 387.602C236.562 388.145 236.298 388.959 236.298 390.044C236.298 391.129 236.562 391.951 237.09 392.508C237.633 393.051 238.271 393.322 239.004 393.322ZM247.11 395.5V379.66H249.926V395.5H247.11ZM257.665 395.5C256.521 395.5 255.604 395.221 254.915 394.664C254.226 394.107 253.881 393.117 253.881 391.694V386.942H252.011V384.588H253.881L254.211 381.662H256.697V384.588H259.645V386.942H256.697V391.716C256.697 392.244 256.807 392.611 257.027 392.816C257.262 393.007 257.658 393.102 258.215 393.102H259.579V395.5H257.665ZM274.345 395.764C272.79 395.764 271.456 395.434 270.341 394.774C269.226 394.099 268.368 393.168 267.767 391.98C267.166 390.777 266.865 389.391 266.865 387.822C266.865 386.253 267.166 384.867 267.767 383.664C268.368 382.461 269.226 381.523 270.341 380.848C271.456 380.173 272.79 379.836 274.345 379.836C276.193 379.836 277.704 380.298 278.877 381.222C280.065 382.131 280.806 383.415 281.099 385.072H277.997C277.806 384.236 277.396 383.583 276.765 383.114C276.149 382.63 275.328 382.388 274.301 382.388C272.878 382.388 271.764 382.872 270.957 383.84C270.15 384.808 269.747 386.135 269.747 387.822C269.747 389.509 270.15 390.836 270.957 391.804C271.764 392.757 272.878 393.234 274.301 393.234C275.328 393.234 276.149 393.014 276.765 392.574C277.396 392.119 277.806 391.496 277.997 390.704H281.099C280.806 392.288 280.065 393.527 278.877 394.422C277.704 395.317 276.193 395.764 274.345 395.764ZM283.592 395.5V380.1H286.408V393.3H293.228V395.5H283.592ZM295.709 395.5V380.1H298.525V395.5H295.709Z" fill="white"/>
<rect x="81" y="334" width="318" height="108" rx="11" stroke="#FFDB1C" stroke-width="2"/>
<path d="M960 612L950 606.226V617.773L960 612ZM743 486V489.812H745V486H743ZM743 497.438V505.062H745V497.438H743ZM743 512.688V520.312H745V512.688H743ZM743 527.938V535.562H745V527.938H743ZM743 543.188V550.812H745V543.188H743ZM743 558.438V566.062H745V558.438H743ZM743 573.688V581.312H745V573.688H743ZM743 588.938V596.562H745V588.938H743ZM743 604.188V608H745V604.188H743ZM743 608C743 610.761 745.239 613 748 613V611C746.343 611 745 609.657 745 608H743ZM748 613H752.077V611H748V613ZM760.231 613H768.385V611H760.231V613ZM776.538 613H784.692V611H776.538V613ZM792.846 613H801V611H792.846V613ZM809.154 613H817.308V611H809.154V613ZM825.462 613H833.615V611H825.462V613ZM841.769 613H849.923V611H841.769V613ZM858.077 613H866.231V611H858.077V613ZM874.385 613H882.538V611H874.385V613ZM890.692 613H898.846V611H890.692V613ZM907 613H915.154V611H907V613ZM923.308 613H931.462V611H923.308V613ZM939.615 613H947.769V611H939.615V613Z" fill="#C8C8C8"/>
<path d="M960 170L950 175.773V164.226L960 170ZM743 281V277.179H745V281H743ZM743 269.536V261.893H745V269.536H743ZM743 254.25V246.607H745V254.25H743ZM743 238.964V231.321H745V238.964H743ZM743 223.679V216.036H745V223.679H743ZM743 208.393V200.75H745V208.393H743ZM743 193.107V185.464H745V193.107H743ZM743 177.821V174H745V177.821H743ZM743 174C743 171.239 745.239 169 748 169V171C746.343 171 745 172.343 745 174H743ZM748 169H752.077V171H748V169ZM760.231 169H768.385V171H760.231V169ZM776.538 169H784.692V171H776.538V169ZM792.846 169H801V171H792.846V169ZM809.154 169H817.308V171H809.154V169ZM825.462 169H833.615V171H825.462V169ZM841.769 169H849.923V171H841.769V169ZM858.077 169H866.231V171H858.077V169ZM874.385 169H882.538V171H874.385V169ZM890.692 169H898.846V171H890.692V169ZM907 169H915.154V171H907V169ZM923.308 169H931.462V171H923.308V169ZM939.615 169H947.769V171H939.615V169Z" fill="#C8C8C8"/>
<defs>
<clipPath id="clip0_13_751">
<rect width="20" height="14.4531" fill="white" transform="translate(1000 124.273)"/>
</clipPath>
</defs>
</svg>
